ISO-10303-21;
HEADER;
/* Generated by software containing ST-Developer
 * from STEP Tools, Inc. (www.steptools.com) 
 */

FILE_DESCRIPTION(
/* description */ (''),
/* implementation_level */ '2;1');

FILE_NAME(
/* name */ '01-base.stp',
/* time_stamp */ '2025-03-09T21:15:59+03:00',
/* author */ ('DuctopwH'),
/* organization */ (''),
/* preprocessor_version */ 'ST-DEVELOPER v19.2',
/* originating_system */ 'Autodesk Inventor 2024',
/* authorisation */ '');

FILE_SCHEMA (('AUTOMOTIVE_DESIGN { 1 0 10303 214 3 1 1 }'));
ENDSEC;

DATA;
#10=MECHANICAL_DESIGN_GEOMETRIC_PRESENTATION_REPRESENTATION('',(#14,#15,
#16,#17,#18),#760);
#11=SHAPE_REPRESENTATION_RELATIONSHIP('SRR','None',#767,#12);
#12=ADVANCED_BREP_SHAPE_REPRESENTATION('',(#13),#759);
#13=MANIFOLD_SOLID_BREP('Solid1',#443);
#14=STYLED_ITEM('',(#777),#430);
#15=STYLED_ITEM('',(#777),#431);
#16=STYLED_ITEM('',(#777),#432);
#17=STYLED_ITEM('',(#777),#433);
#18=STYLED_ITEM('',(#776),#13);
#19=FACE_BOUND('',#64,.T.);
#20=FACE_BOUND('',#65,.T.);
#21=FACE_BOUND('',#71,.T.);
#22=FACE_BOUND('',#72,.T.);
#23=FACE_BOUND('',#82,.T.);
#24=FACE_BOUND('',#83,.T.);
#25=FACE_BOUND('',#89,.T.);
#26=FACE_BOUND('',#90,.T.);
#27=PLANE('',#469);
#28=PLANE('',#472);
#29=PLANE('',#478);
#30=PLANE('',#484);
#31=PLANE('',#485);
#32=PLANE('',#500);
#33=PLANE('',#502);
#34=PLANE('',#503);
#35=PLANE('',#504);
#36=PLANE('',#505);
#37=PLANE('',#506);
#38=PLANE('',#507);
#39=FACE_OUTER_BOUND('',#61,.T.);
#40=FACE_OUTER_BOUND('',#62,.T.);
#41=FACE_OUTER_BOUND('',#63,.T.);
#42=FACE_OUTER_BOUND('',#66,.T.);
#43=FACE_OUTER_BOUND('',#67,.T.);
#44=FACE_OUTER_BOUND('',#68,.T.);
#45=FACE_OUTER_BOUND('',#69,.T.);
#46=FACE_OUTER_BOUND('',#70,.T.);
#47=FACE_OUTER_BOUND('',#73,.T.);
#48=FACE_OUTER_BOUND('',#74,.T.);
#49=FACE_OUTER_BOUND('',#75,.T.);
#50=FACE_OUTER_BOUND('',#76,.T.);
#51=FACE_OUTER_BOUND('',#77,.T.);
#52=FACE_OUTER_BOUND('',#78,.T.);
#53=FACE_OUTER_BOUND('',#79,.T.);
#54=FACE_OUTER_BOUND('',#80,.T.);
#55=FACE_OUTER_BOUND('',#81,.T.);
#56=FACE_OUTER_BOUND('',#84,.T.);
#57=FACE_OUTER_BOUND('',#85,.T.);
#58=FACE_OUTER_BOUND('',#86,.T.);
#59=FACE_OUTER_BOUND('',#87,.T.);
#60=FACE_OUTER_BOUND('',#88,.T.);
#61=EDGE_LOOP('',(#291,#292,#293,#294));
#62=EDGE_LOOP('',(#295,#296,#297,#298,#299,#300,#301,#302,#303,#304,#305,
#306));
#63=EDGE_LOOP('',(#307,#308,#309,#310,#311,#312));
#64=EDGE_LOOP('',(#313));
#65=EDGE_LOOP('',(#314));
#66=EDGE_LOOP('',(#315,#316,#317,#318));
#67=EDGE_LOOP('',(#319,#320,#321,#322,#323,#324,#325,#326,#327,#328,#329,
#330));
#68=EDGE_LOOP('',(#331,#332,#333,#334));
#69=EDGE_LOOP('',(#335,#336,#337,#338));
#70=EDGE_LOOP('',(#339,#340,#341,#342,#343,#344));
#71=EDGE_LOOP('',(#345));
#72=EDGE_LOOP('',(#346));
#73=EDGE_LOOP('',(#347,#348,#349,#350));
#74=EDGE_LOOP('',(#351,#352,#353,#354));
#75=EDGE_LOOP('',(#355,#356,#357,#358));
#76=EDGE_LOOP('',(#359,#360,#361,#362));
#77=EDGE_LOOP('',(#363,#364,#365,#366));
#78=EDGE_LOOP('',(#367,#368,#369,#370));
#79=EDGE_LOOP('',(#371,#372,#373,#374));
#80=EDGE_LOOP('',(#375,#376,#377,#378));
#81=EDGE_LOOP('',(#379,#380,#381,#382,#383,#384));
#82=EDGE_LOOP('',(#385));
#83=EDGE_LOOP('',(#386));
#84=EDGE_LOOP('',(#387,#388,#389,#390));
#85=EDGE_LOOP('',(#391,#392,#393,#394));
#86=EDGE_LOOP('',(#395,#396,#397,#398));
#87=EDGE_LOOP('',(#399,#400,#401,#402));
#88=EDGE_LOOP('',(#403,#404,#405,#406,#407,#408));
#89=EDGE_LOOP('',(#409));
#90=EDGE_LOOP('',(#410));
#91=LINE('',#640,#131);
#92=LINE('',#643,#132);
#93=LINE('',#646,#133);
#94=LINE('',#648,#134);
#95=LINE('',#650,#135);
#96=LINE('',#652,#136);
#97=LINE('',#654,#137);
#98=LINE('',#656,#138);
#99=LINE('',#658,#139);
#100=LINE('',#662,#140);
#101=LINE('',#665,#141);
#102=LINE('',#668,#142);
#103=LINE('',#672,#143);
#104=LINE('',#673,#144);
#105=LINE('',#682,#145);
#106=LINE('',#683,#146);
#107=LINE('',#686,#147);
#108=LINE('',#690,#148);
#109=LINE('',#694,#149);
#110=LINE('',#696,#150);
#111=LINE('',#698,#151);
#112=LINE('',#700,#152);
#113=LINE('',#702,#153);
#114=LINE('',#703,#154);
#115=LINE('',#709,#155);
#116=LINE('',#712,#156);
#117=LINE('',#714,#157);
#118=LINE('',#715,#158);
#119=LINE('',#717,#159);
#120=LINE('',#727,#160);
#121=LINE('',#731,#161);
#122=LINE('',#736,#162);
#123=LINE('',#740,#163);
#124=LINE('',#742,#164);
#125=LINE('',#744,#165);
#126=LINE('',#746,#166);
#127=LINE('',#748,#167);
#128=LINE('',#750,#168);
#129=LINE('',#752,#169);
#130=LINE('',#755,#170);
#131=VECTOR('',#514,10.);
#132=VECTOR('',#517,10.);
#133=VECTOR('',#520,10.);
#134=VECTOR('',#521,10.);
#135=VECTOR('',#522,10.);
#136=VECTOR('',#523,10.);
#137=VECTOR('',#524,10.);
#138=VECTOR('',#525,10.);
#139=VECTOR('',#526,10.);
#140=VECTOR('',#529,10.);
#141=VECTOR('',#532,10.);
#142=VECTOR('',#535,10.);
#143=VECTOR('',#538,10.);
#144=VECTOR('',#539,10.);
#145=VECTOR('',#548,10.);
#146=VECTOR('',#549,10.);
#147=VECTOR('',#552,10.);
#148=VECTOR('',#555,10.);
#149=VECTOR('',#558,10.);
#150=VECTOR('',#559,10.);
#151=VECTOR('',#560,10.);
#152=VECTOR('',#561,10.);
#153=VECTOR('',#562,10.);
#154=VECTOR('',#563,10.);
#155=VECTOR('',#570,10.);
#156=VECTOR('',#573,10.);
#157=VECTOR('',#574,10.);
#158=VECTOR('',#575,10.);
#159=VECTOR('',#578,10.);
#160=VECTOR('',#591,5.053);
#161=VECTOR('',#596,5.053);
#162=VECTOR('',#603,5.053);
#163=VECTOR('',#608,5.053);
#164=VECTOR('',#611,10.);
#165=VECTOR('',#614,10.);
#166=VECTOR('',#617,10.);
#167=VECTOR('',#620,10.);
#168=VECTOR('',#623,10.);
#169=VECTOR('',#626,10.);
#170=VECTOR('',#631,10.);
#171=CIRCLE('',#467,8.);
#172=CIRCLE('',#468,8.);
#173=CIRCLE('',#470,3.);
#174=CIRCLE('',#471,3.);
#175=CIRCLE('',#473,8.);
#176=CIRCLE('',#474,5.053);
#177=CIRCLE('',#475,5.053);
#178=CIRCLE('',#477,8.);
#179=CIRCLE('',#479,3.);
#180=CIRCLE('',#480,3.);
#181=CIRCLE('',#482,8.);
#182=CIRCLE('',#483,8.);
#183=CIRCLE('',#486,8.);
#184=CIRCLE('',#487,5.053);
#185=CIRCLE('',#488,5.053);
#186=CIRCLE('',#490,8.);
#187=CIRCLE('',#492,5.053);
#188=CIRCLE('',#494,5.053);
#189=CIRCLE('',#496,5.053);
#190=CIRCLE('',#498,5.053);
#191=VERTEX_POINT('',#636);
#192=VERTEX_POINT('',#637);
#193=VERTEX_POINT('',#639);
#194=VERTEX_POINT('',#641);
#195=VERTEX_POINT('',#645);
#196=VERTEX_POINT('',#647);
#197=VERTEX_POINT('',#649);
#198=VERTEX_POINT('',#651);
#199=VERTEX_POINT('',#653);
#200=VERTEX_POINT('',#655);
#201=VERTEX_POINT('',#657);
#202=VERTEX_POINT('',#659);
#203=VERTEX_POINT('',#661);
#204=VERTEX_POINT('',#663);
#205=VERTEX_POINT('',#667);
#206=VERTEX_POINT('',#669);
#207=VERTEX_POINT('',#671);
#208=VERTEX_POINT('',#674);
#209=VERTEX_POINT('',#676);
#210=VERTEX_POINT('',#679);
#211=VERTEX_POINT('',#680);
#212=VERTEX_POINT('',#685);
#213=VERTEX_POINT('',#687);
#214=VERTEX_POINT('',#689);
#215=VERTEX_POINT('',#691);
#216=VERTEX_POINT('',#693);
#217=VERTEX_POINT('',#695);
#218=VERTEX_POINT('',#697);
#219=VERTEX_POINT('',#699);
#220=VERTEX_POINT('',#701);
#221=VERTEX_POINT('',#705);
#222=VERTEX_POINT('',#707);
#223=VERTEX_POINT('',#711);
#224=VERTEX_POINT('',#713);
#225=VERTEX_POINT('',#719);
#226=VERTEX_POINT('',#721);
#227=VERTEX_POINT('',#726);
#228=VERTEX_POINT('',#730);
#229=VERTEX_POINT('',#734);
#230=VERTEX_POINT('',#738);
#231=EDGE_CURVE('',#191,#192,#171,.T.);
#232=EDGE_CURVE('',#192,#193,#91,.T.);
#233=EDGE_CURVE('',#193,#194,#172,.T.);
#234=EDGE_CURVE('',#194,#191,#92,.T.);
#235=EDGE_CURVE('',#192,#195,#93,.T.);
#236=EDGE_CURVE('',#195,#196,#94,.T.);
#237=EDGE_CURVE('',#196,#197,#95,.T.);
#238=EDGE_CURVE('',#197,#198,#96,.T.);
#239=EDGE_CURVE('',#198,#199,#97,.T.);
#240=EDGE_CURVE('',#200,#199,#98,.T.);
#241=EDGE_CURVE('',#200,#201,#99,.T.);
#242=EDGE_CURVE('',#202,#201,#173,.T.);
#243=EDGE_CURVE('',#202,#203,#100,.T.);
#244=EDGE_CURVE('',#204,#203,#174,.T.);
#245=EDGE_CURVE('',#204,#193,#101,.T.);
#246=EDGE_CURVE('',#205,#191,#102,.T.);
#247=EDGE_CURVE('',#206,#205,#175,.T.);
#248=EDGE_CURVE('',#207,#206,#103,.T.);
#249=EDGE_CURVE('',#207,#195,#104,.T.);
#250=EDGE_CURVE('',#208,#208,#176,.T.);
#251=EDGE_CURVE('',#209,#209,#177,.T.);
#252=EDGE_CURVE('',#210,#211,#178,.T.);
#253=EDGE_CURVE('',#211,#206,#105,.T.);
#254=EDGE_CURVE('',#205,#210,#106,.T.);
#255=EDGE_CURVE('',#211,#212,#107,.T.);
#256=EDGE_CURVE('',#213,#212,#179,.T.);
#257=EDGE_CURVE('',#213,#214,#108,.T.);
#258=EDGE_CURVE('',#215,#214,#180,.T.);
#259=EDGE_CURVE('',#215,#216,#109,.T.);
#260=EDGE_CURVE('',#217,#216,#110,.T.);
#261=EDGE_CURVE('',#217,#218,#111,.T.);
#262=EDGE_CURVE('',#218,#219,#112,.T.);
#263=EDGE_CURVE('',#219,#220,#113,.T.);
#264=EDGE_CURVE('',#220,#207,#114,.T.);
#265=EDGE_CURVE('',#221,#217,#181,.T.);
#266=EDGE_CURVE('',#216,#222,#182,.T.);
#267=EDGE_CURVE('',#222,#221,#115,.T.);
#268=EDGE_CURVE('',#222,#223,#116,.T.);
#269=EDGE_CURVE('',#224,#223,#117,.T.);
#270=EDGE_CURVE('',#221,#224,#118,.T.);
#271=EDGE_CURVE('',#201,#215,#119,.T.);
#272=EDGE_CURVE('',#223,#200,#183,.T.);
#273=EDGE_CURVE('',#225,#225,#184,.T.);
#274=EDGE_CURVE('',#226,#226,#185,.T.);
#275=EDGE_CURVE('',#199,#224,#186,.T.);
#276=EDGE_CURVE('',#208,#227,#120,.T.);
#277=EDGE_CURVE('',#227,#227,#187,.T.);
#278=EDGE_CURVE('',#209,#228,#121,.T.);
#279=EDGE_CURVE('',#228,#228,#188,.T.);
#280=EDGE_CURVE('',#229,#229,#189,.T.);
#281=EDGE_CURVE('',#229,#225,#122,.T.);
#282=EDGE_CURVE('',#230,#230,#190,.T.);
#283=EDGE_CURVE('',#230,#226,#123,.T.);
#284=EDGE_CURVE('',#214,#202,#124,.T.);
#285=EDGE_CURVE('',#203,#213,#125,.T.);
#286=EDGE_CURVE('',#212,#204,#126,.T.);
#287=EDGE_CURVE('',#218,#198,#127,.T.);
#288=EDGE_CURVE('',#219,#197,#128,.T.);
#289=EDGE_CURVE('',#220,#196,#129,.T.);
#290=EDGE_CURVE('',#210,#194,#130,.T.);
#291=ORIENTED_EDGE('',*,*,#231,.T.);
#292=ORIENTED_EDGE('',*,*,#232,.T.);
#293=ORIENTED_EDGE('',*,*,#233,.T.);
#294=ORIENTED_EDGE('',*,*,#234,.T.);
#295=ORIENTED_EDGE('',*,*,#232,.F.);
#296=ORIENTED_EDGE('',*,*,#235,.T.);
#297=ORIENTED_EDGE('',*,*,#236,.T.);
#298=ORIENTED_EDGE('',*,*,#237,.T.);
#299=ORIENTED_EDGE('',*,*,#238,.T.);
#300=ORIENTED_EDGE('',*,*,#239,.T.);
#301=ORIENTED_EDGE('',*,*,#240,.F.);
#302=ORIENTED_EDGE('',*,*,#241,.T.);
#303=ORIENTED_EDGE('',*,*,#242,.F.);
#304=ORIENTED_EDGE('',*,*,#243,.T.);
#305=ORIENTED_EDGE('',*,*,#244,.F.);
#306=ORIENTED_EDGE('',*,*,#245,.T.);
#307=ORIENTED_EDGE('',*,*,#231,.F.);
#308=ORIENTED_EDGE('',*,*,#246,.F.);
#309=ORIENTED_EDGE('',*,*,#247,.F.);
#310=ORIENTED_EDGE('',*,*,#248,.F.);
#311=ORIENTED_EDGE('',*,*,#249,.T.);
#312=ORIENTED_EDGE('',*,*,#235,.F.);
#313=ORIENTED_EDGE('',*,*,#250,.T.);
#314=ORIENTED_EDGE('',*,*,#251,.T.);
#315=ORIENTED_EDGE('',*,*,#252,.T.);
#316=ORIENTED_EDGE('',*,*,#253,.T.);
#317=ORIENTED_EDGE('',*,*,#247,.T.);
#318=ORIENTED_EDGE('',*,*,#254,.T.);
#319=ORIENTED_EDGE('',*,*,#253,.F.);
#320=ORIENTED_EDGE('',*,*,#255,.T.);
#321=ORIENTED_EDGE('',*,*,#256,.F.);
#322=ORIENTED_EDGE('',*,*,#257,.T.);
#323=ORIENTED_EDGE('',*,*,#258,.F.);
#324=ORIENTED_EDGE('',*,*,#259,.T.);
#325=ORIENTED_EDGE('',*,*,#260,.F.);
#326=ORIENTED_EDGE('',*,*,#261,.T.);
#327=ORIENTED_EDGE('',*,*,#262,.T.);
#328=ORIENTED_EDGE('',*,*,#263,.T.);
#329=ORIENTED_EDGE('',*,*,#264,.T.);
#330=ORIENTED_EDGE('',*,*,#248,.T.);
#331=ORIENTED_EDGE('',*,*,#265,.T.);
#332=ORIENTED_EDGE('',*,*,#260,.T.);
#333=ORIENTED_EDGE('',*,*,#266,.T.);
#334=ORIENTED_EDGE('',*,*,#267,.T.);
#335=ORIENTED_EDGE('',*,*,#267,.F.);
#336=ORIENTED_EDGE('',*,*,#268,.T.);
#337=ORIENTED_EDGE('',*,*,#269,.F.);
#338=ORIENTED_EDGE('',*,*,#270,.F.);
#339=ORIENTED_EDGE('',*,*,#266,.F.);
#340=ORIENTED_EDGE('',*,*,#259,.F.);
#341=ORIENTED_EDGE('',*,*,#271,.F.);
#342=ORIENTED_EDGE('',*,*,#241,.F.);
#343=ORIENTED_EDGE('',*,*,#272,.F.);
#344=ORIENTED_EDGE('',*,*,#268,.F.);
#345=ORIENTED_EDGE('',*,*,#273,.T.);
#346=ORIENTED_EDGE('',*,*,#274,.T.);
#347=ORIENTED_EDGE('',*,*,#272,.T.);
#348=ORIENTED_EDGE('',*,*,#240,.T.);
#349=ORIENTED_EDGE('',*,*,#275,.T.);
#350=ORIENTED_EDGE('',*,*,#269,.T.);
#351=ORIENTED_EDGE('',*,*,#250,.F.);
#352=ORIENTED_EDGE('',*,*,#276,.T.);
#353=ORIENTED_EDGE('',*,*,#277,.F.);
#354=ORIENTED_EDGE('',*,*,#276,.F.);
#355=ORIENTED_EDGE('',*,*,#251,.F.);
#356=ORIENTED_EDGE('',*,*,#278,.T.);
#357=ORIENTED_EDGE('',*,*,#279,.F.);
#358=ORIENTED_EDGE('',*,*,#278,.F.);
#359=ORIENTED_EDGE('',*,*,#280,.F.);
#360=ORIENTED_EDGE('',*,*,#281,.T.);
#361=ORIENTED_EDGE('',*,*,#273,.F.);
#362=ORIENTED_EDGE('',*,*,#281,.F.);
#363=ORIENTED_EDGE('',*,*,#282,.F.);
#364=ORIENTED_EDGE('',*,*,#283,.T.);
#365=ORIENTED_EDGE('',*,*,#274,.F.);
#366=ORIENTED_EDGE('',*,*,#283,.F.);
#367=ORIENTED_EDGE('',*,*,#258,.T.);
#368=ORIENTED_EDGE('',*,*,#284,.T.);
#369=ORIENTED_EDGE('',*,*,#242,.T.);
#370=ORIENTED_EDGE('',*,*,#271,.T.);
#371=ORIENTED_EDGE('',*,*,#284,.F.);
#372=ORIENTED_EDGE('',*,*,#257,.F.);
#373=ORIENTED_EDGE('',*,*,#285,.F.);
#374=ORIENTED_EDGE('',*,*,#243,.F.);
#375=ORIENTED_EDGE('',*,*,#256,.T.);
#376=ORIENTED_EDGE('',*,*,#286,.T.);
#377=ORIENTED_EDGE('',*,*,#244,.T.);
#378=ORIENTED_EDGE('',*,*,#285,.T.);
#379=ORIENTED_EDGE('',*,*,#265,.F.);
#380=ORIENTED_EDGE('',*,*,#270,.T.);
#381=ORIENTED_EDGE('',*,*,#275,.F.);
#382=ORIENTED_EDGE('',*,*,#239,.F.);
#383=ORIENTED_EDGE('',*,*,#287,.F.);
#384=ORIENTED_EDGE('',*,*,#261,.F.);
#385=ORIENTED_EDGE('',*,*,#280,.T.);
#386=ORIENTED_EDGE('',*,*,#282,.T.);
#387=ORIENTED_EDGE('',*,*,#287,.T.);
#388=ORIENTED_EDGE('',*,*,#238,.F.);
#389=ORIENTED_EDGE('',*,*,#288,.F.);
#390=ORIENTED_EDGE('',*,*,#262,.F.);
#391=ORIENTED_EDGE('',*,*,#288,.T.);
#392=ORIENTED_EDGE('',*,*,#237,.F.);
#393=ORIENTED_EDGE('',*,*,#289,.F.);
#394=ORIENTED_EDGE('',*,*,#263,.F.);
#395=ORIENTED_EDGE('',*,*,#289,.T.);
#396=ORIENTED_EDGE('',*,*,#236,.F.);
#397=ORIENTED_EDGE('',*,*,#249,.F.);
#398=ORIENTED_EDGE('',*,*,#264,.F.);
#399=ORIENTED_EDGE('',*,*,#234,.F.);
#400=ORIENTED_EDGE('',*,*,#290,.F.);
#401=ORIENTED_EDGE('',*,*,#254,.F.);
#402=ORIENTED_EDGE('',*,*,#246,.T.);
#403=ORIENTED_EDGE('',*,*,#233,.F.);
#404=ORIENTED_EDGE('',*,*,#245,.F.);
#405=ORIENTED_EDGE('',*,*,#286,.F.);
#406=ORIENTED_EDGE('',*,*,#255,.F.);
#407=ORIENTED_EDGE('',*,*,#252,.F.);
#408=ORIENTED_EDGE('',*,*,#290,.T.);
#409=ORIENTED_EDGE('',*,*,#277,.T.);
#410=ORIENTED_EDGE('',*,*,#279,.T.);
#411=CYLINDRICAL_SURFACE('',#466,8.);
#412=CYLINDRICAL_SURFACE('',#476,8.);
#413=CYLINDRICAL_SURFACE('',#481,8.);
#414=CYLINDRICAL_SURFACE('',#489,8.);
#415=CYLINDRICAL_SURFACE('',#491,5.053);
#416=CYLINDRICAL_SURFACE('',#493,5.053);
#417=CYLINDRICAL_SURFACE('',#495,5.053);
#418=CYLINDRICAL_SURFACE('',#497,5.053);
#419=CYLINDRICAL_SURFACE('',#499,3.);
#420=CYLINDRICAL_SURFACE('',#501,3.);
#421=ADVANCED_FACE('',(#39),#411,.T.);
#422=ADVANCED_FACE('',(#40),#27,.T.);
#423=ADVANCED_FACE('',(#41,#19,#20),#28,.T.);
#424=ADVANCED_FACE('',(#42),#412,.T.);
#425=ADVANCED_FACE('',(#43),#29,.T.);
#426=ADVANCED_FACE('',(#44),#413,.T.);
#427=ADVANCED_FACE('',(#45),#30,.T.);
#428=ADVANCED_FACE('',(#46,#21,#22),#31,.T.);
#429=ADVANCED_FACE('',(#47),#414,.T.);
#430=ADVANCED_FACE('',(#48),#415,.F.);
#431=ADVANCED_FACE('',(#49),#416,.F.);
#432=ADVANCED_FACE('',(#50),#417,.F.);
#433=ADVANCED_FACE('',(#51),#418,.F.);
#434=ADVANCED_FACE('',(#52),#419,.F.);
#435=ADVANCED_FACE('',(#53),#32,.T.);
#436=ADVANCED_FACE('',(#54),#420,.F.);
#437=ADVANCED_FACE('',(#55,#23,#24),#33,.T.);
#438=ADVANCED_FACE('',(#56),#34,.T.);
#439=ADVANCED_FACE('',(#57),#35,.T.);
#440=ADVANCED_FACE('',(#58),#36,.T.);
#441=ADVANCED_FACE('',(#59),#37,.T.);
#442=ADVANCED_FACE('',(#60,#25,#26),#38,.T.);
#443=CLOSED_SHELL('',(#421,#422,#423,#424,#425,#426,#427,#428,#429,#430,
#431,#432,#433,#434,#435,#436,#437,#438,#439,#440,#441,#442));
#444=DERIVED_UNIT_ELEMENT(#447,1.);
#445=DERIVED_UNIT_ELEMENT(#762,-3.);
#446=DIMENSIONAL_EXPONENTS(0.,1.,0.,0.,0.,0.,0.);
#447=(
CONVERSION_BASED_UNIT('gram',#449)
MASS_UNIT()
NAMED_UNIT(#446)
);
#448=(
MASS_UNIT()
NAMED_UNIT(*)
SI_UNIT(.KILO.,.GRAM.)
);
#449=MASS_MEASURE_WITH_UNIT(MASS_MEASURE(0.001),#448);
#450=DERIVED_UNIT((#444,#445));
#451=MEASURE_REPRESENTATION_ITEM('density measure',
POSITIVE_RATIO_MEASURE(7.15),#450);
#452=PROPERTY_DEFINITION_REPRESENTATION(#457,#454);
#453=PROPERTY_DEFINITION_REPRESENTATION(#458,#455);
#454=REPRESENTATION('material name',(#456),#759);
#455=REPRESENTATION('density',(#451),#759);
#456=DESCRIPTIVE_REPRESENTATION_ITEM('Iron, Gray','Iron, Gray');
#457=PROPERTY_DEFINITION('material property','material name',#769);
#458=PROPERTY_DEFINITION('material property','density of part',#769);
#459=DATE_TIME_ROLE('creation_date');
#460=APPLIED_DATE_AND_TIME_ASSIGNMENT(#461,#459,(#769));
#461=DATE_AND_TIME(#462,#463);
#462=CALENDAR_DATE(2025,9,3);
#463=LOCAL_TIME(0,0,0.,#464);
#464=COORDINATED_UNIVERSAL_TIME_OFFSET(0,0,.BEHIND.);
#465=AXIS2_PLACEMENT_3D('',#634,#508,#509);
#466=AXIS2_PLACEMENT_3D('',#635,#510,#511);
#467=AXIS2_PLACEMENT_3D('',#638,#512,#513);
#468=AXIS2_PLACEMENT_3D('',#642,#515,#516);
#469=AXIS2_PLACEMENT_3D('',#644,#518,#519);
#470=AXIS2_PLACEMENT_3D('',#660,#527,#528);
#471=AXIS2_PLACEMENT_3D('',#664,#530,#531);
#472=AXIS2_PLACEMENT_3D('',#666,#533,#534);
#473=AXIS2_PLACEMENT_3D('',#670,#536,#537);
#474=AXIS2_PLACEMENT_3D('',#675,#540,#541);
#475=AXIS2_PLACEMENT_3D('',#677,#542,#543);
#476=AXIS2_PLACEMENT_3D('',#678,#544,#545);
#477=AXIS2_PLACEMENT_3D('',#681,#546,#547);
#478=AXIS2_PLACEMENT_3D('',#684,#550,#551);
#479=AXIS2_PLACEMENT_3D('',#688,#553,#554);
#480=AXIS2_PLACEMENT_3D('',#692,#556,#557);
#481=AXIS2_PLACEMENT_3D('',#704,#564,#565);
#482=AXIS2_PLACEMENT_3D('',#706,#566,#567);
#483=AXIS2_PLACEMENT_3D('',#708,#568,#569);
#484=AXIS2_PLACEMENT_3D('',#710,#571,#572);
#485=AXIS2_PLACEMENT_3D('',#716,#576,#577);
#486=AXIS2_PLACEMENT_3D('',#718,#579,#580);
#487=AXIS2_PLACEMENT_3D('',#720,#581,#582);
#488=AXIS2_PLACEMENT_3D('',#722,#583,#584);
#489=AXIS2_PLACEMENT_3D('',#723,#585,#586);
#490=AXIS2_PLACEMENT_3D('',#724,#587,#588);
#491=AXIS2_PLACEMENT_3D('',#725,#589,#590);
#492=AXIS2_PLACEMENT_3D('',#728,#592,#593);
#493=AXIS2_PLACEMENT_3D('',#729,#594,#595);
#494=AXIS2_PLACEMENT_3D('',#732,#597,#598);
#495=AXIS2_PLACEMENT_3D('',#733,#599,#600);
#496=AXIS2_PLACEMENT_3D('',#735,#601,#602);
#497=AXIS2_PLACEMENT_3D('',#737,#604,#605);
#498=AXIS2_PLACEMENT_3D('',#739,#606,#607);
#499=AXIS2_PLACEMENT_3D('',#741,#609,#610);
#500=AXIS2_PLACEMENT_3D('',#743,#612,#613);
#501=AXIS2_PLACEMENT_3D('',#745,#615,#616);
#502=AXIS2_PLACEMENT_3D('',#747,#618,#619);
#503=AXIS2_PLACEMENT_3D('',#749,#621,#622);
#504=AXIS2_PLACEMENT_3D('',#751,#624,#625);
#505=AXIS2_PLACEMENT_3D('',#753,#627,#628);
#506=AXIS2_PLACEMENT_3D('',#754,#629,#630);
#507=AXIS2_PLACEMENT_3D('',#756,#632,#633);
#508=DIRECTION('axis',(0.,0.,1.));
#509=DIRECTION('refdir',(1.,0.,0.));
#510=DIRECTION('center_axis',(0.,1.,0.));
#511=DIRECTION('ref_axis',(0.707106781186547,0.,0.707106781186548));
#512=DIRECTION('center_axis',(-3.70074341541719E-16,-1.,0.));
#513=DIRECTION('ref_axis',(0.707106781186547,0.,0.707106781186548));
#514=DIRECTION('',(0.,-1.,0.));
#515=DIRECTION('center_axis',(4.93432455388958E-16,1.,0.));
#516=DIRECTION('ref_axis',(0.707106781186547,0.,0.707106781186548));
#517=DIRECTION('',(0.,1.,0.));
#518=DIRECTION('center_axis',(0.,0.,1.));
#519=DIRECTION('ref_axis',(1.,0.,0.));
#520=DIRECTION('',(-1.,3.70074341541719E-16,0.));
#521=DIRECTION('',(0.,1.,0.));
#522=DIRECTION('',(-1.,-2.52323414687536E-16,0.));
#523=DIRECTION('',(0.,-1.,0.));
#524=DIRECTION('',(-1.,-3.70074341541719E-16,0.));
#525=DIRECTION('',(0.,1.,0.));
#526=DIRECTION('',(1.,4.93432455388958E-16,0.));
#527=DIRECTION('center_axis',(0.,0.,1.));
#528=DIRECTION('ref_axis',(-0.707106781186547,0.707106781186547,0.));
#529=DIRECTION('',(1.,1.34572487833352E-16,0.));
#530=DIRECTION('center_axis',(0.,0.,1.));
#531=DIRECTION('ref_axis',(0.707106781186547,0.707106781186547,0.));
#532=DIRECTION('',(1.,-4.93432455388958E-16,0.));
#533=DIRECTION('center_axis',(3.70074341541719E-16,1.,0.));
#534=DIRECTION('ref_axis',(-1.,3.70074341541719E-16,0.));
#535=DIRECTION('',(0.,0.,1.));
#536=DIRECTION('center_axis',(-3.70074341541719E-16,-1.,0.));
#537=DIRECTION('ref_axis',(0.707106781186547,0.,-0.707106781186548));
#538=DIRECTION('',(1.,-3.70074341541719E-16,0.));
#539=DIRECTION('',(0.,0.,1.));
#540=DIRECTION('center_axis',(-3.70074341541719E-16,-1.,0.));
#541=DIRECTION('ref_axis',(1.,3.70074341541719E-16,0.));
#542=DIRECTION('center_axis',(-3.70074341541719E-16,-1.,0.));
#543=DIRECTION('ref_axis',(1.,3.70074341541719E-16,0.));
#544=DIRECTION('center_axis',(0.,-1.,0.));
#545=DIRECTION('ref_axis',(0.707106781186547,0.,-0.707106781186548));
#546=DIRECTION('center_axis',(4.93432455388958E-16,1.,0.));
#547=DIRECTION('ref_axis',(0.707106781186547,0.,-0.707106781186548));
#548=DIRECTION('',(0.,1.,0.));
#549=DIRECTION('',(0.,-1.,0.));
#550=DIRECTION('center_axis',(0.,0.,-1.));
#551=DIRECTION('ref_axis',(-1.,0.,0.));
#552=DIRECTION('',(-1.,4.93432455388958E-16,0.));
#553=DIRECTION('center_axis',(0.,0.,-1.));
#554=DIRECTION('ref_axis',(0.707106781186547,0.707106781186547,0.));
#555=DIRECTION('',(-1.,-1.34572487833352E-16,0.));
#556=DIRECTION('center_axis',(0.,0.,-1.));
#557=DIRECTION('ref_axis',(-0.707106781186547,0.707106781186547,0.));
#558=DIRECTION('',(-1.,-4.93432455388958E-16,0.));
#559=DIRECTION('',(0.,-1.,0.));
#560=DIRECTION('',(1.,3.70074341541719E-16,0.));
#561=DIRECTION('',(0.,1.,0.));
#562=DIRECTION('',(1.,2.52323414687536E-16,0.));
#563=DIRECTION('',(0.,-1.,0.));
#564=DIRECTION('center_axis',(0.,1.,0.));
#565=DIRECTION('ref_axis',(-0.707106781186547,0.,-0.707106781186548));
#566=DIRECTION('center_axis',(3.70074341541719E-16,-1.,0.));
#567=DIRECTION('ref_axis',(-0.707106781186547,0.,-0.707106781186548));
#568=DIRECTION('center_axis',(-4.93432455388958E-16,1.,0.));
#569=DIRECTION('ref_axis',(-0.707106781186547,0.,-0.707106781186548));
#570=DIRECTION('',(0.,1.,0.));
#571=DIRECTION('center_axis',(-1.,0.,0.));
#572=DIRECTION('ref_axis',(0.,-1.,0.));
#573=DIRECTION('',(0.,0.,1.));
#574=DIRECTION('',(0.,-1.,0.));
#575=DIRECTION('',(0.,0.,1.));
#576=DIRECTION('center_axis',(4.93432455388958E-16,-1.,0.));
#577=DIRECTION('ref_axis',(1.,4.93432455388958E-16,0.));
#578=DIRECTION('',(0.,0.,-1.));
#579=DIRECTION('center_axis',(-4.93432455388958E-16,1.,0.));
#580=DIRECTION('ref_axis',(-0.707106781186547,0.,0.707106781186548));
#581=DIRECTION('center_axis',(-4.93432455388958E-16,1.,0.));
#582=DIRECTION('ref_axis',(1.,3.70074341541719E-16,0.));
#583=DIRECTION('center_axis',(-4.93432455388958E-16,1.,0.));
#584=DIRECTION('ref_axis',(1.,3.70074341541719E-16,0.));
#585=DIRECTION('center_axis',(0.,-1.,0.));
#586=DIRECTION('ref_axis',(-0.707106781186547,0.,0.707106781186548));
#587=DIRECTION('center_axis',(3.70074341541719E-16,-1.,0.));
#588=DIRECTION('ref_axis',(-0.707106781186547,0.,0.707106781186548));
#589=DIRECTION('center_axis',(-3.70074341541719E-16,1.,0.));
#590=DIRECTION('ref_axis',(1.,3.70074341541719E-16,0.));
#591=DIRECTION('',(3.70074341541719E-16,-1.,0.));
#592=DIRECTION('center_axis',(4.93432455388958E-16,1.,0.));
#593=DIRECTION('ref_axis',(1.,3.70074341541719E-16,0.));
#594=DIRECTION('center_axis',(-3.70074341541719E-16,1.,0.));
#595=DIRECTION('ref_axis',(1.,3.70074341541719E-16,0.));
#596=DIRECTION('',(3.70074341541719E-16,-1.,0.));
#597=DIRECTION('center_axis',(4.93432455388958E-16,1.,0.));
#598=DIRECTION('ref_axis',(1.,3.70074341541719E-16,0.));
#599=DIRECTION('center_axis',(-3.70074341541719E-16,1.,0.));
#600=DIRECTION('ref_axis',(1.,3.70074341541719E-16,0.));
#601=DIRECTION('center_axis',(3.70074341541719E-16,-1.,0.));
#602=DIRECTION('ref_axis',(1.,3.70074341541719E-16,0.));
#603=DIRECTION('',(3.70074341541719E-16,-1.,0.));
#604=DIRECTION('center_axis',(-3.70074341541719E-16,1.,0.));
#605=DIRECTION('ref_axis',(1.,3.70074341541719E-16,0.));
#606=DIRECTION('center_axis',(3.70074341541719E-16,-1.,0.));
#607=DIRECTION('ref_axis',(1.,3.70074341541719E-16,0.));
#608=DIRECTION('',(3.70074341541719E-16,-1.,0.));
#609=DIRECTION('center_axis',(0.,0.,1.));
#610=DIRECTION('ref_axis',(-0.707106781186547,0.707106781186547,0.));
#611=DIRECTION('',(0.,0.,1.));
#612=DIRECTION('center_axis',(1.34572487833352E-16,-1.,0.));
#613=DIRECTION('ref_axis',(1.,1.34572487833352E-16,0.));
#614=DIRECTION('',(0.,0.,-1.));
#615=DIRECTION('center_axis',(0.,0.,1.));
#616=DIRECTION('ref_axis',(0.707106781186547,0.707106781186547,0.));
#617=DIRECTION('',(0.,0.,1.));
#618=DIRECTION('center_axis',(-3.70074341541719E-16,1.,0.));
#619=DIRECTION('ref_axis',(-1.,-3.70074341541719E-16,0.));
#620=DIRECTION('',(0.,0.,1.));
#621=DIRECTION('center_axis',(-1.,0.,0.));
#622=DIRECTION('ref_axis',(0.,-1.,0.));
#623=DIRECTION('',(0.,0.,1.));
#624=DIRECTION('center_axis',(-2.52323414687536E-16,1.,0.));
#625=DIRECTION('ref_axis',(-1.,-2.52323414687536E-16,0.));
#626=DIRECTION('',(0.,0.,1.));
#627=DIRECTION('center_axis',(1.,0.,0.));
#628=DIRECTION('ref_axis',(0.,1.,0.));
#629=DIRECTION('center_axis',(1.,0.,0.));
#630=DIRECTION('ref_axis',(0.,1.,0.));
#631=DIRECTION('',(0.,0.,1.));
#632=DIRECTION('center_axis',(-4.93432455388958E-16,-1.,0.));
#633=DIRECTION('ref_axis',(1.,-4.93432455388958E-16,0.));
#634=CARTESIAN_POINT('',(0.,0.,0.));
#635=CARTESIAN_POINT('Origin',(71.,-5.00000000000002,29.));
#636=CARTESIAN_POINT('',(79.,3.49999999999997,29.));
#637=CARTESIAN_POINT('',(71.,3.49999999999998,37.));
#638=CARTESIAN_POINT('Origin',(71.,3.49999999999997,29.));
#639=CARTESIAN_POINT('',(71.,-8.50000000000003,37.));
#640=CARTESIAN_POINT('',(71.,-5.00000000000002,37.));
#641=CARTESIAN_POINT('',(79.,-8.50000000000003,29.));
#642=CARTESIAN_POINT('Origin',(71.,-8.50000000000001,29.));
#643=CARTESIAN_POINT('',(79.,-5.00000000000002,29.));
#644=CARTESIAN_POINT('Origin',(0.,-1.50000000000001,37.));
#645=CARTESIAN_POINT('',(33.,3.49999999999999,37.));
#646=CARTESIAN_POINT('',(79.,3.49999999999997,37.));
#647=CARTESIAN_POINT('',(33.,5.50000000000002,37.));
#648=CARTESIAN_POINT('',(33.,-5.50000000000001,37.));
#649=CARTESIAN_POINT('',(-33.,5.50000000000001,37.));
#650=CARTESIAN_POINT('',(33.,5.50000000000002,37.));
#651=CARTESIAN_POINT('',(-33.,3.49999999999999,37.));
#652=CARTESIAN_POINT('',(-33.,5.50000000000001,37.));
#653=CARTESIAN_POINT('',(-71.,3.49999999999998,37.));
#654=CARTESIAN_POINT('',(-25.,3.49999999999999,37.));
#655=CARTESIAN_POINT('',(-71.,-8.50000000000003,37.));
#656=CARTESIAN_POINT('',(-71.,0.999999999999984,37.));
#657=CARTESIAN_POINT('',(-25.,-8.50000000000001,37.));
#658=CARTESIAN_POINT('',(-79.,-8.50000000000003,37.));
#659=CARTESIAN_POINT('',(-22.,-5.50000000000002,37.));
#660=CARTESIAN_POINT('Origin',(-22.,-8.50000000000002,37.));
#661=CARTESIAN_POINT('',(22.,-5.50000000000001,37.));
#662=CARTESIAN_POINT('',(-33.,-5.50000000000002,37.));
#663=CARTESIAN_POINT('',(25.,-8.50000000000001,37.));
#664=CARTESIAN_POINT('Origin',(22.,-8.50000000000001,37.));
#665=CARTESIAN_POINT('',(25.,-8.50000000000001,37.));
#666=CARTESIAN_POINT('Origin',(79.,3.49999999999997,0.));
#667=CARTESIAN_POINT('',(79.,3.49999999999997,-29.));
#668=CARTESIAN_POINT('',(79.,3.49999999999997,0.));
#669=CARTESIAN_POINT('',(71.,3.49999999999998,-37.));
#670=CARTESIAN_POINT('Origin',(71.,3.49999999999997,-29.));
#671=CARTESIAN_POINT('',(33.,3.49999999999999,-37.));
#672=CARTESIAN_POINT('',(79.,3.49999999999997,-37.));
#673=CARTESIAN_POINT('',(33.,3.49999999999999,0.));
#674=CARTESIAN_POINT('',(61.947,3.49999999999998,-25.));
#675=CARTESIAN_POINT('Origin',(67.,3.49999999999998,-25.));
#676=CARTESIAN_POINT('',(61.947,3.49999999999998,25.));
#677=CARTESIAN_POINT('Origin',(67.,3.49999999999998,25.));
#678=CARTESIAN_POINT('Origin',(71.,-5.00000000000002,-29.));
#679=CARTESIAN_POINT('',(79.,-8.50000000000003,-29.));
#680=CARTESIAN_POINT('',(71.,-8.50000000000003,-37.));
#681=CARTESIAN_POINT('Origin',(71.,-8.50000000000001,-29.));
#682=CARTESIAN_POINT('',(71.,-5.00000000000002,-37.));
#683=CARTESIAN_POINT('',(79.,-5.00000000000002,-29.));
#684=CARTESIAN_POINT('Origin',(0.,-1.50000000000001,-37.));
#685=CARTESIAN_POINT('',(25.,-8.50000000000001,-37.));
#686=CARTESIAN_POINT('',(25.,-8.50000000000001,-37.));
#687=CARTESIAN_POINT('',(22.,-5.50000000000001,-37.));
#688=CARTESIAN_POINT('Origin',(22.,-8.50000000000001,-37.));
#689=CARTESIAN_POINT('',(-22.,-5.50000000000002,-37.));
#690=CARTESIAN_POINT('',(-33.,-5.50000000000002,-37.));
#691=CARTESIAN_POINT('',(-25.,-8.50000000000001,-37.));
#692=CARTESIAN_POINT('Origin',(-22.,-8.50000000000002,-37.));
#693=CARTESIAN_POINT('',(-71.,-8.50000000000003,-37.));
#694=CARTESIAN_POINT('',(-79.,-8.50000000000003,-37.));
#695=CARTESIAN_POINT('',(-71.,3.49999999999998,-37.));
#696=CARTESIAN_POINT('',(-71.,0.999999999999984,-37.));
#697=CARTESIAN_POINT('',(-33.,3.49999999999999,-37.));
#698=CARTESIAN_POINT('',(-25.,3.49999999999999,-37.));
#699=CARTESIAN_POINT('',(-33.,5.50000000000001,-37.));
#700=CARTESIAN_POINT('',(-33.,5.50000000000001,-37.));
#701=CARTESIAN_POINT('',(33.,5.50000000000002,-37.));
#702=CARTESIAN_POINT('',(33.,5.50000000000002,-37.));
#703=CARTESIAN_POINT('',(33.,-5.50000000000001,-37.));
#704=CARTESIAN_POINT('Origin',(-71.,0.999999999999984,-29.));
#705=CARTESIAN_POINT('',(-79.,3.49999999999997,-29.));
#706=CARTESIAN_POINT('Origin',(-71.,3.49999999999999,-29.));
#707=CARTESIAN_POINT('',(-79.,-8.50000000000003,-29.));
#708=CARTESIAN_POINT('Origin',(-71.,-8.50000000000003,-29.));
#709=CARTESIAN_POINT('',(-79.,0.999999999999984,-29.));
#710=CARTESIAN_POINT('Origin',(-79.,3.49999999999997,0.));
#711=CARTESIAN_POINT('',(-79.,-8.50000000000003,29.));
#712=CARTESIAN_POINT('',(-79.,-8.50000000000003,0.));
#713=CARTESIAN_POINT('',(-79.,3.49999999999997,29.));
#714=CARTESIAN_POINT('',(-79.,0.999999999999984,29.));
#715=CARTESIAN_POINT('',(-79.,3.49999999999997,0.));
#716=CARTESIAN_POINT('Origin',(-79.,-8.50000000000003,0.));
#717=CARTESIAN_POINT('',(-25.,-8.50000000000001,0.));
#718=CARTESIAN_POINT('Origin',(-71.,-8.50000000000003,29.));
#719=CARTESIAN_POINT('',(-72.053,-8.50000000000005,-25.));
#720=CARTESIAN_POINT('Origin',(-67.,-8.50000000000005,-25.));
#721=CARTESIAN_POINT('',(-72.053,-8.50000000000005,25.));
#722=CARTESIAN_POINT('Origin',(-67.,-8.50000000000005,25.));
#723=CARTESIAN_POINT('Origin',(-71.,0.999999999999984,29.));
#724=CARTESIAN_POINT('Origin',(-71.,3.49999999999999,29.));
#725=CARTESIAN_POINT('Origin',(67.0000000000001,-171.531425749778,-25.));
#726=CARTESIAN_POINT('',(61.947,-8.50000000000001,-25.));
#727=CARTESIAN_POINT('',(61.9470000000001,-171.531425749778,-25.));
#728=CARTESIAN_POINT('Origin',(67.,-8.50000000000001,-25.));
#729=CARTESIAN_POINT('Origin',(67.0000000000001,-171.531425749778,25.));
#730=CARTESIAN_POINT('',(61.947,-8.50000000000001,25.));
#731=CARTESIAN_POINT('',(61.9470000000001,-171.531425749778,25.));
#732=CARTESIAN_POINT('Origin',(67.,-8.50000000000001,25.));
#733=CARTESIAN_POINT('Origin',(-66.9999999999999,-171.531425749778,-25.));
#734=CARTESIAN_POINT('',(-72.053,3.49999999999998,-25.));
#735=CARTESIAN_POINT('Origin',(-67.,3.49999999999998,-25.));
#736=CARTESIAN_POINT('',(-72.0529999999999,-171.531425749778,-25.));
#737=CARTESIAN_POINT('Origin',(-66.9999999999999,-171.531425749778,25.));
#738=CARTESIAN_POINT('',(-72.053,3.49999999999998,25.));
#739=CARTESIAN_POINT('Origin',(-67.,3.49999999999998,25.));
#740=CARTESIAN_POINT('',(-72.0529999999999,-171.531425749778,25.));
#741=CARTESIAN_POINT('Origin',(-22.,-8.50000000000002,0.));
#742=CARTESIAN_POINT('',(-22.,-5.50000000000002,0.));
#743=CARTESIAN_POINT('Origin',(-25.,-5.50000000000002,0.));
#744=CARTESIAN_POINT('',(22.,-5.50000000000001,0.));
#745=CARTESIAN_POINT('Origin',(22.,-8.50000000000001,0.));
#746=CARTESIAN_POINT('',(25.,-8.50000000000001,0.));
#747=CARTESIAN_POINT('Origin',(-33.,3.49999999999999,0.));
#748=CARTESIAN_POINT('',(-33.,3.49999999999999,0.));
#749=CARTESIAN_POINT('Origin',(-33.,5.50000000000001,0.));
#750=CARTESIAN_POINT('',(-33.,5.50000000000001,0.));
#751=CARTESIAN_POINT('Origin',(33.,5.50000000000002,0.));
#752=CARTESIAN_POINT('',(33.,5.50000000000002,0.));
#753=CARTESIAN_POINT('Origin',(33.,3.49999999999999,0.));
#754=CARTESIAN_POINT('Origin',(79.,-8.50000000000003,0.));
#755=CARTESIAN_POINT('',(79.,-8.50000000000003,0.));
#756=CARTESIAN_POINT('Origin',(25.,-8.50000000000001,0.));
#757=UNCERTAINTY_MEASURE_WITH_UNIT(LENGTH_MEASURE(0.01),#761,
'DISTANCE_ACCURACY_VALUE',
'Maximum model space distance between geometric entities at asserted c
onnectivities');
#758=UNCERTAINTY_MEASURE_WITH_UNIT(LENGTH_MEASURE(0.01),#761,
'DISTANCE_ACCURACY_VALUE',
'Maximum model space distance between geometric entities at asserted c
onnectivities');
#759=(
GEOMETRIC_REPRESENTATION_CONTEXT(3)
GLOBAL_UNCERTAINTY_ASSIGNED_CONTEXT((#757))
GLOBAL_UNIT_ASSIGNED_CONTEXT((#761,#763,#764))
REPRESENTATION_CONTEXT('','3D')
);
#760=(
GEOMETRIC_REPRESENTATION_CONTEXT(3)
GLOBAL_UNCERTAINTY_ASSIGNED_CONTEXT((#758))
GLOBAL_UNIT_ASSIGNED_CONTEXT((#761,#763,#764))
REPRESENTATION_CONTEXT('','3D')
);
#761=(
LENGTH_UNIT()
NAMED_UNIT(*)
SI_UNIT(.MILLI.,.METRE.)
);
#762=(
LENGTH_UNIT()
NAMED_UNIT(*)
SI_UNIT(.CENTI.,.METRE.)
);
#763=(
NAMED_UNIT(*)
PLANE_ANGLE_UNIT()
SI_UNIT($,.RADIAN.)
);
#764=(
NAMED_UNIT(*)
SI_UNIT($,.STERADIAN.)
SOLID_ANGLE_UNIT()
);
#765=SHAPE_DEFINITION_REPRESENTATION(#766,#767);
#766=PRODUCT_DEFINITION_SHAPE('',$,#769);
#767=SHAPE_REPRESENTATION('',(#465),#759);
#768=PRODUCT_DEFINITION_CONTEXT('part definition',#773,'design');
#769=PRODUCT_DEFINITION('01-base','01-base',#770,#768);
#770=PRODUCT_DEFINITION_FORMATION('',$,#775);
#771=PRODUCT_RELATED_PRODUCT_CATEGORY('01-base','01-base',(#775));
#772=APPLICATION_PROTOCOL_DEFINITION('international standard',
'automotive_design',2009,#773);
#773=APPLICATION_CONTEXT(
'Core Data for Automotive Mechanical Design Process');
#774=PRODUCT_CONTEXT('part definition',#773,'mechanical');
#775=PRODUCT('01-base','01-base',$,(#774));
#776=PRESENTATION_STYLE_ASSIGNMENT((#778));
#777=PRESENTATION_STYLE_ASSIGNMENT((#779));
#778=SURFACE_STYLE_USAGE(.BOTH.,#784);
#779=SURFACE_STYLE_USAGE(.BOTH.,#785);
#780=SURFACE_STYLE_RENDERING_WITH_PROPERTIES($,#792,(#782));
#781=SURFACE_STYLE_RENDERING_WITH_PROPERTIES($,#793,(#783));
#782=SURFACE_STYLE_TRANSPARENT(0.);
#783=SURFACE_STYLE_TRANSPARENT(0.);
#784=SURFACE_SIDE_STYLE('',(#786,#780));
#785=SURFACE_SIDE_STYLE('',(#787,#781));
#786=SURFACE_STYLE_FILL_AREA(#788);
#787=SURFACE_STYLE_FILL_AREA(#789);
#788=FILL_AREA_STYLE('',(#790));
#789=FILL_AREA_STYLE('',(#791));
#790=FILL_AREA_STYLE_COLOUR('',#792);
#791=FILL_AREA_STYLE_COLOUR('',#793);
#792=COLOUR_RGB('',0.352941176470588,0.384313725490196,0.4);
#793=COLOUR_RGB('',0.745098039215686,0.737254901960784,0.729411764705882);
ENDSEC;
END-ISO-10303-21;
