ISO-10303-21;
HEADER;
/* Generated by software containing ST-Developer
 * from STEP Tools, Inc. (www.steptools.com) 
 */

FILE_DESCRIPTION(
/* description */ (''),
/* implementation_level */ '2;1');

FILE_NAME(
/* name */ '02-bracket.stp',
/* time_stamp */ '2025-03-09T21:17:33+03:00',
/* author */ ('DuctopwH'),
/* organization */ (''),
/* preprocessor_version */ 'ST-DEVELOPER v19.2',
/* originating_system */ 'Autodesk Inventor 2024',
/* authorisation */ '');

FILE_SCHEMA (('AUTOMOTIVE_DESIGN { 1 0 10303 214 3 1 1 }'));
ENDSEC;

DATA;
#10=MECHANICAL_DESIGN_GEOMETRIC_PRESENTATION_REPRESENTATION('',(#13),#811);
#11=SHAPE_REPRESENTATION_RELATIONSHIP('SRR','None',#818,#12);
#12=ADVANCED_BREP_SHAPE_REPRESENTATION('',(#14),#810);
#13=STYLED_ITEM('',(#827),#14);
#14=MANIFOLD_SOLID_BREP('Solid1',#460);
#15=TOROIDAL_SURFACE('',#495,21.,5.);
#16=B_SPLINE_CURVE_WITH_KNOTS('',3,(#707,#708,#709,#710,#711,#712,#713,
#714),.UNSPECIFIED.,.F.,.F.,(4,2,2,4),(3.05069011227206,3.39476096619503,
3.738831820118,4.42697352796393),.UNSPECIFIED.);
#17=B_SPLINE_CURVE_WITH_KNOTS('',3,(#717,#718,#719,#720,#721,#722,#723,
#724),.UNSPECIFIED.,.F.,.F.,(4,2,2,4),(0.,0.688141707845935,1.0322125617689,
1.37628341569187),.UNSPECIFIED.);
#18=B_SPLINE_CURVE_WITH_KNOTS('',3,(#729,#730,#731,#732,#733,#734),
 .UNSPECIFIED.,.F.,.F.,(4,2,4),(3.18076799948479,3.87940216115147,4.57803632281816),
 .UNSPECIFIED.);
#19=B_SPLINE_CURVE_WITH_KNOTS('',3,(#738,#739,#740,#741,#742,#743),
 .UNSPECIFIED.,.F.,.F.,(4,2,4),(0.,0.698634161666684,1.39726832333337),
 .UNSPECIFIED.);
#20=FACE_BOUND('',#68,.T.);
#21=FACE_BOUND('',#72,.T.);
#22=FACE_BOUND('',#82,.T.);
#23=FACE_BOUND('',#93,.T.);
#24=FACE_BOUND('',#94,.T.);
#25=FACE_BOUND('',#96,.T.);
#26=PLANE('',#486);
#27=PLANE('',#488);
#28=PLANE('',#492);
#29=PLANE('',#514);
#30=PLANE('',#515);
#31=PLANE('',#516);
#32=PLANE('',#517);
#33=PLANE('',#518);
#34=PLANE('',#519);
#35=PLANE('',#520);
#36=PLANE('',#521);
#37=PLANE('',#522);
#38=PLANE('',#523);
#39=PLANE('',#524);
#40=PLANE('',#525);
#41=FACE_OUTER_BOUND('',#66,.T.);
#42=FACE_OUTER_BOUND('',#67,.T.);
#43=FACE_OUTER_BOUND('',#69,.T.);
#44=FACE_OUTER_BOUND('',#70,.T.);
#45=FACE_OUTER_BOUND('',#71,.T.);
#46=FACE_OUTER_BOUND('',#73,.T.);
#47=FACE_OUTER_BOUND('',#74,.T.);
#48=FACE_OUTER_BOUND('',#75,.T.);
#49=FACE_OUTER_BOUND('',#76,.T.);
#50=FACE_OUTER_BOUND('',#77,.T.);
#51=FACE_OUTER_BOUND('',#78,.T.);
#52=FACE_OUTER_BOUND('',#79,.T.);
#53=FACE_OUTER_BOUND('',#80,.T.);
#54=FACE_OUTER_BOUND('',#81,.T.);
#55=FACE_OUTER_BOUND('',#83,.T.);
#56=FACE_OUTER_BOUND('',#84,.T.);
#57=FACE_OUTER_BOUND('',#85,.T.);
#58=FACE_OUTER_BOUND('',#86,.T.);
#59=FACE_OUTER_BOUND('',#87,.T.);
#60=FACE_OUTER_BOUND('',#88,.T.);
#61=FACE_OUTER_BOUND('',#89,.T.);
#62=FACE_OUTER_BOUND('',#90,.T.);
#63=FACE_OUTER_BOUND('',#91,.T.);
#64=FACE_OUTER_BOUND('',#92,.T.);
#65=FACE_OUTER_BOUND('',#95,.T.);
#66=EDGE_LOOP('',(#300,#301,#302,#303));
#67=EDGE_LOOP('',(#304,#305,#306,#307,#308,#309,#310));
#68=EDGE_LOOP('',(#311));
#69=EDGE_LOOP('',(#312,#313,#314,#315,#316,#317));
#70=EDGE_LOOP('',(#318,#319,#320,#321));
#71=EDGE_LOOP('',(#322,#323,#324,#325,#326,#327,#328));
#72=EDGE_LOOP('',(#329));
#73=EDGE_LOOP('',(#330,#331,#332,#333));
#74=EDGE_LOOP('',(#334,#335,#336,#337));
#75=EDGE_LOOP('',(#338,#339,#340,#341));
#76=EDGE_LOOP('',(#342,#343,#344,#345,#346));
#77=EDGE_LOOP('',(#347,#348,#349,#350,#351));
#78=EDGE_LOOP('',(#352,#353,#354,#355));
#79=EDGE_LOOP('',(#356,#357,#358,#359));
#80=EDGE_LOOP('',(#360,#361,#362,#363));
#81=EDGE_LOOP('',(#364,#365));
#82=EDGE_LOOP('',(#366));
#83=EDGE_LOOP('',(#367,#368,#369,#370,#371,#372));
#84=EDGE_LOOP('',(#373,#374,#375));
#85=EDGE_LOOP('',(#376,#377,#378,#379));
#86=EDGE_LOOP('',(#380,#381,#382));
#87=EDGE_LOOP('',(#383,#384,#385,#386));
#88=EDGE_LOOP('',(#387,#388,#389,#390));
#89=EDGE_LOOP('',(#391,#392,#393,#394,#395,#396));
#90=EDGE_LOOP('',(#397,#398,#399,#400,#401));
#91=EDGE_LOOP('',(#402,#403,#404,#405,#406));
#92=EDGE_LOOP('',(#407,#408,#409,#410,#411,#412));
#93=EDGE_LOOP('',(#413));
#94=EDGE_LOOP('',(#414));
#95=EDGE_LOOP('',(#415,#416,#417,#418,#419,#420,#421,#422,#423,#424));
#96=EDGE_LOOP('',(#425));
#97=LINE('',#661,#138);
#98=LINE('',#664,#139);
#99=LINE('',#667,#140);
#100=LINE('',#669,#141);
#101=LINE('',#671,#142);
#102=LINE('',#673,#143);
#103=LINE('',#675,#144);
#104=LINE('',#676,#145);
#105=LINE('',#681,#146);
#106=LINE('',#683,#147);
#107=LINE('',#685,#148);
#108=LINE('',#686,#149);
#109=LINE('',#692,#150);
#110=LINE('',#695,#151);
#111=LINE('',#697,#152);
#112=LINE('',#699,#153);
#113=LINE('',#701,#154);
#114=LINE('',#702,#155);
#115=LINE('',#715,#156);
#116=LINE('',#725,#157);
#117=LINE('',#747,#158);
#118=LINE('',#750,#159);
#119=LINE('',#757,#160);
#120=LINE('',#763,#161);
#121=LINE('',#766,#162);
#122=LINE('',#770,#163);
#123=LINE('',#776,#164);
#124=LINE('',#780,#165);
#125=LINE('',#781,#166);
#126=LINE('',#784,#167);
#127=LINE('',#785,#168);
#128=LINE('',#788,#169);
#129=LINE('',#789,#170);
#130=LINE('',#791,#171);
#131=LINE('',#794,#172);
#132=LINE('',#795,#173);
#133=LINE('',#798,#174);
#134=LINE('',#799,#175);
#135=LINE('',#801,#176);
#136=LINE('',#803,#177);
#137=LINE('',#805,#178);
#138=VECTOR('',#532,10.);
#139=VECTOR('',#535,10.);
#140=VECTOR('',#538,10.);
#141=VECTOR('',#539,10.);
#142=VECTOR('',#540,10.);
#143=VECTOR('',#541,10.);
#144=VECTOR('',#542,10.);
#145=VECTOR('',#543,10.);
#146=VECTOR('',#548,10.);
#147=VECTOR('',#549,10.);
#148=VECTOR('',#550,10.);
#149=VECTOR('',#551,10.);
#150=VECTOR('',#558,10.);
#151=VECTOR('',#561,10.);
#152=VECTOR('',#562,10.);
#153=VECTOR('',#563,10.);
#154=VECTOR('',#564,10.);
#155=VECTOR('',#565,10.);
#156=VECTOR('',#570,10.);
#157=VECTOR('',#571,10.);
#158=VECTOR('',#580,10.);
#159=VECTOR('',#583,10.);
#160=VECTOR('',#592,10.);
#161=VECTOR('',#599,10.);
#162=VECTOR('',#602,6.5);
#163=VECTOR('',#607,6.5);
#164=VECTOR('',#614,6.);
#165=VECTOR('',#621,10.);
#166=VECTOR('',#622,10.);
#167=VECTOR('',#625,10.);
#168=VECTOR('',#626,10.);
#169=VECTOR('',#629,10.);
#170=VECTOR('',#630,10.);
#171=VECTOR('',#633,10.);
#172=VECTOR('',#636,10.);
#173=VECTOR('',#637,10.);
#174=VECTOR('',#640,10.);
#175=VECTOR('',#641,10.);
#176=VECTOR('',#644,10.);
#177=VECTOR('',#647,10.);
#178=VECTOR('',#650,10.);
#179=CIRCLE('',#484,8.);
#180=CIRCLE('',#485,8.);
#181=CIRCLE('',#487,6.5);
#182=CIRCLE('',#490,8.);
#183=CIRCLE('',#491,8.);
#184=CIRCLE('',#493,6.5);
#185=CIRCLE('',#496,16.);
#186=CIRCLE('',#497,21.);
#187=CIRCLE('',#499,16.);
#188=CIRCLE('',#500,16.);
#189=CIRCLE('',#502,16.);
#190=CIRCLE('',#503,16.);
#191=CIRCLE('',#505,16.);
#192=CIRCLE('',#506,16.);
#193=CIRCLE('',#508,6.5);
#194=CIRCLE('',#510,6.5);
#195=CIRCLE('',#512,6.);
#196=CIRCLE('',#513,6.);
#197=VERTEX_POINT('',#657);
#198=VERTEX_POINT('',#658);
#199=VERTEX_POINT('',#660);
#200=VERTEX_POINT('',#662);
#201=VERTEX_POINT('',#666);
#202=VERTEX_POINT('',#668);
#203=VERTEX_POINT('',#670);
#204=VERTEX_POINT('',#672);
#205=VERTEX_POINT('',#674);
#206=VERTEX_POINT('',#677);
#207=VERTEX_POINT('',#680);
#208=VERTEX_POINT('',#682);
#209=VERTEX_POINT('',#684);
#210=VERTEX_POINT('',#688);
#211=VERTEX_POINT('',#690);
#212=VERTEX_POINT('',#694);
#213=VERTEX_POINT('',#696);
#214=VERTEX_POINT('',#698);
#215=VERTEX_POINT('',#700);
#216=VERTEX_POINT('',#703);
#217=VERTEX_POINT('',#706);
#218=VERTEX_POINT('',#716);
#219=VERTEX_POINT('',#727);
#220=VERTEX_POINT('',#728);
#221=VERTEX_POINT('',#735);
#222=VERTEX_POINT('',#737);
#223=VERTEX_POINT('',#746);
#224=VERTEX_POINT('',#749);
#225=VERTEX_POINT('',#753);
#226=VERTEX_POINT('',#755);
#227=VERTEX_POINT('',#759);
#228=VERTEX_POINT('',#761);
#229=VERTEX_POINT('',#765);
#230=VERTEX_POINT('',#769);
#231=VERTEX_POINT('',#773);
#232=VERTEX_POINT('',#775);
#233=VERTEX_POINT('',#783);
#234=VERTEX_POINT('',#787);
#235=VERTEX_POINT('',#793);
#236=VERTEX_POINT('',#797);
#237=EDGE_CURVE('',#197,#198,#179,.T.);
#238=EDGE_CURVE('',#198,#199,#97,.T.);
#239=EDGE_CURVE('',#199,#200,#180,.T.);
#240=EDGE_CURVE('',#200,#197,#98,.T.);
#241=EDGE_CURVE('',#197,#201,#99,.T.);
#242=EDGE_CURVE('',#201,#202,#100,.T.);
#243=EDGE_CURVE('',#203,#202,#101,.T.);
#244=EDGE_CURVE('',#204,#203,#102,.T.);
#245=EDGE_CURVE('',#204,#205,#103,.T.);
#246=EDGE_CURVE('',#205,#198,#104,.T.);
#247=EDGE_CURVE('',#206,#206,#181,.T.);
#248=EDGE_CURVE('',#207,#200,#105,.T.);
#249=EDGE_CURVE('',#208,#207,#106,.T.);
#250=EDGE_CURVE('',#209,#208,#107,.T.);
#251=EDGE_CURVE('',#201,#209,#108,.T.);
#252=EDGE_CURVE('',#210,#208,#182,.T.);
#253=EDGE_CURVE('',#207,#211,#183,.T.);
#254=EDGE_CURVE('',#211,#210,#109,.T.);
#255=EDGE_CURVE('',#210,#212,#110,.T.);
#256=EDGE_CURVE('',#212,#213,#111,.T.);
#257=EDGE_CURVE('',#214,#213,#112,.T.);
#258=EDGE_CURVE('',#215,#214,#113,.T.);
#259=EDGE_CURVE('',#215,#209,#114,.T.);
#260=EDGE_CURVE('',#216,#216,#184,.T.);
#261=EDGE_CURVE('',#217,#213,#16,.T.);
#262=EDGE_CURVE('',#213,#204,#115,.T.);
#263=EDGE_CURVE('',#204,#218,#17,.T.);
#264=EDGE_CURVE('',#218,#217,#116,.T.);
#265=EDGE_CURVE('',#219,#220,#18,.T.);
#266=EDGE_CURVE('',#220,#221,#185,.T.);
#267=EDGE_CURVE('',#221,#222,#19,.T.);
#268=EDGE_CURVE('',#222,#219,#186,.T.);
#269=EDGE_CURVE('',#223,#221,#117,.T.);
#270=EDGE_CURVE('',#221,#220,#187,.T.);
#271=EDGE_CURVE('',#224,#220,#118,.T.);
#272=EDGE_CURVE('',#224,#223,#188,.T.);
#273=EDGE_CURVE('',#225,#218,#189,.T.);
#274=EDGE_CURVE('',#203,#226,#190,.T.);
#275=EDGE_CURVE('',#226,#225,#119,.T.);
#276=EDGE_CURVE('',#227,#214,#191,.T.);
#277=EDGE_CURVE('',#217,#228,#192,.T.);
#278=EDGE_CURVE('',#228,#227,#120,.T.);
#279=EDGE_CURVE('',#206,#229,#121,.T.);
#280=EDGE_CURVE('',#229,#229,#193,.T.);
#281=EDGE_CURVE('',#216,#230,#122,.T.);
#282=EDGE_CURVE('',#230,#230,#194,.T.);
#283=EDGE_CURVE('',#231,#231,#195,.T.);
#284=EDGE_CURVE('',#231,#232,#123,.T.);
#285=EDGE_CURVE('',#232,#232,#196,.T.);
#286=EDGE_CURVE('',#225,#219,#124,.T.);
#287=EDGE_CURVE('',#222,#228,#125,.T.);
#288=EDGE_CURVE('',#202,#233,#126,.T.);
#289=EDGE_CURVE('',#233,#201,#127,.T.);
#290=EDGE_CURVE('',#209,#234,#128,.T.);
#291=EDGE_CURVE('',#233,#234,#129,.T.);
#292=EDGE_CURVE('',#234,#215,#130,.T.);
#293=EDGE_CURVE('',#235,#211,#131,.T.);
#294=EDGE_CURVE('',#235,#212,#132,.T.);
#295=EDGE_CURVE('',#236,#205,#133,.T.);
#296=EDGE_CURVE('',#199,#236,#134,.T.);
#297=EDGE_CURVE('',#236,#235,#135,.T.);
#298=EDGE_CURVE('',#223,#227,#136,.T.);
#299=EDGE_CURVE('',#226,#224,#137,.T.);
#300=ORIENTED_EDGE('',*,*,#237,.T.);
#301=ORIENTED_EDGE('',*,*,#238,.T.);
#302=ORIENTED_EDGE('',*,*,#239,.T.);
#303=ORIENTED_EDGE('',*,*,#240,.T.);
#304=ORIENTED_EDGE('',*,*,#237,.F.);
#305=ORIENTED_EDGE('',*,*,#241,.T.);
#306=ORIENTED_EDGE('',*,*,#242,.T.);
#307=ORIENTED_EDGE('',*,*,#243,.F.);
#308=ORIENTED_EDGE('',*,*,#244,.F.);
#309=ORIENTED_EDGE('',*,*,#245,.T.);
#310=ORIENTED_EDGE('',*,*,#246,.T.);
#311=ORIENTED_EDGE('',*,*,#247,.T.);
#312=ORIENTED_EDGE('',*,*,#240,.F.);
#313=ORIENTED_EDGE('',*,*,#248,.F.);
#314=ORIENTED_EDGE('',*,*,#249,.F.);
#315=ORIENTED_EDGE('',*,*,#250,.F.);
#316=ORIENTED_EDGE('',*,*,#251,.F.);
#317=ORIENTED_EDGE('',*,*,#241,.F.);
#318=ORIENTED_EDGE('',*,*,#252,.T.);
#319=ORIENTED_EDGE('',*,*,#249,.T.);
#320=ORIENTED_EDGE('',*,*,#253,.T.);
#321=ORIENTED_EDGE('',*,*,#254,.T.);
#322=ORIENTED_EDGE('',*,*,#252,.F.);
#323=ORIENTED_EDGE('',*,*,#255,.T.);
#324=ORIENTED_EDGE('',*,*,#256,.T.);
#325=ORIENTED_EDGE('',*,*,#257,.F.);
#326=ORIENTED_EDGE('',*,*,#258,.F.);
#327=ORIENTED_EDGE('',*,*,#259,.T.);
#328=ORIENTED_EDGE('',*,*,#250,.T.);
#329=ORIENTED_EDGE('',*,*,#260,.T.);
#330=ORIENTED_EDGE('',*,*,#261,.T.);
#331=ORIENTED_EDGE('',*,*,#262,.T.);
#332=ORIENTED_EDGE('',*,*,#263,.T.);
#333=ORIENTED_EDGE('',*,*,#264,.T.);
#334=ORIENTED_EDGE('',*,*,#265,.T.);
#335=ORIENTED_EDGE('',*,*,#266,.T.);
#336=ORIENTED_EDGE('',*,*,#267,.T.);
#337=ORIENTED_EDGE('',*,*,#268,.T.);
#338=ORIENTED_EDGE('',*,*,#269,.T.);
#339=ORIENTED_EDGE('',*,*,#270,.T.);
#340=ORIENTED_EDGE('',*,*,#271,.F.);
#341=ORIENTED_EDGE('',*,*,#272,.T.);
#342=ORIENTED_EDGE('',*,*,#273,.T.);
#343=ORIENTED_EDGE('',*,*,#263,.F.);
#344=ORIENTED_EDGE('',*,*,#244,.T.);
#345=ORIENTED_EDGE('',*,*,#274,.T.);
#346=ORIENTED_EDGE('',*,*,#275,.T.);
#347=ORIENTED_EDGE('',*,*,#276,.T.);
#348=ORIENTED_EDGE('',*,*,#257,.T.);
#349=ORIENTED_EDGE('',*,*,#261,.F.);
#350=ORIENTED_EDGE('',*,*,#277,.T.);
#351=ORIENTED_EDGE('',*,*,#278,.T.);
#352=ORIENTED_EDGE('',*,*,#247,.F.);
#353=ORIENTED_EDGE('',*,*,#279,.T.);
#354=ORIENTED_EDGE('',*,*,#280,.F.);
#355=ORIENTED_EDGE('',*,*,#279,.F.);
#356=ORIENTED_EDGE('',*,*,#260,.F.);
#357=ORIENTED_EDGE('',*,*,#281,.T.);
#358=ORIENTED_EDGE('',*,*,#282,.F.);
#359=ORIENTED_EDGE('',*,*,#281,.F.);
#360=ORIENTED_EDGE('',*,*,#283,.F.);
#361=ORIENTED_EDGE('',*,*,#284,.T.);
#362=ORIENTED_EDGE('',*,*,#285,.F.);
#363=ORIENTED_EDGE('',*,*,#284,.F.);
#364=ORIENTED_EDGE('',*,*,#270,.F.);
#365=ORIENTED_EDGE('',*,*,#266,.F.);
#366=ORIENTED_EDGE('',*,*,#283,.T.);
#367=ORIENTED_EDGE('',*,*,#264,.F.);
#368=ORIENTED_EDGE('',*,*,#273,.F.);
#369=ORIENTED_EDGE('',*,*,#286,.T.);
#370=ORIENTED_EDGE('',*,*,#268,.F.);
#371=ORIENTED_EDGE('',*,*,#287,.T.);
#372=ORIENTED_EDGE('',*,*,#277,.F.);
#373=ORIENTED_EDGE('',*,*,#288,.F.);
#374=ORIENTED_EDGE('',*,*,#242,.F.);
#375=ORIENTED_EDGE('',*,*,#289,.F.);
#376=ORIENTED_EDGE('',*,*,#251,.T.);
#377=ORIENTED_EDGE('',*,*,#290,.T.);
#378=ORIENTED_EDGE('',*,*,#291,.F.);
#379=ORIENTED_EDGE('',*,*,#289,.T.);
#380=ORIENTED_EDGE('',*,*,#292,.F.);
#381=ORIENTED_EDGE('',*,*,#290,.F.);
#382=ORIENTED_EDGE('',*,*,#259,.F.);
#383=ORIENTED_EDGE('',*,*,#254,.F.);
#384=ORIENTED_EDGE('',*,*,#293,.F.);
#385=ORIENTED_EDGE('',*,*,#294,.T.);
#386=ORIENTED_EDGE('',*,*,#255,.F.);
#387=ORIENTED_EDGE('',*,*,#238,.F.);
#388=ORIENTED_EDGE('',*,*,#246,.F.);
#389=ORIENTED_EDGE('',*,*,#295,.F.);
#390=ORIENTED_EDGE('',*,*,#296,.F.);
#391=ORIENTED_EDGE('',*,*,#297,.F.);
#392=ORIENTED_EDGE('',*,*,#295,.T.);
#393=ORIENTED_EDGE('',*,*,#245,.F.);
#394=ORIENTED_EDGE('',*,*,#262,.F.);
#395=ORIENTED_EDGE('',*,*,#256,.F.);
#396=ORIENTED_EDGE('',*,*,#294,.F.);
#397=ORIENTED_EDGE('',*,*,#278,.F.);
#398=ORIENTED_EDGE('',*,*,#287,.F.);
#399=ORIENTED_EDGE('',*,*,#267,.F.);
#400=ORIENTED_EDGE('',*,*,#269,.F.);
#401=ORIENTED_EDGE('',*,*,#298,.T.);
#402=ORIENTED_EDGE('',*,*,#275,.F.);
#403=ORIENTED_EDGE('',*,*,#299,.T.);
#404=ORIENTED_EDGE('',*,*,#271,.T.);
#405=ORIENTED_EDGE('',*,*,#265,.F.);
#406=ORIENTED_EDGE('',*,*,#286,.F.);
#407=ORIENTED_EDGE('',*,*,#239,.F.);
#408=ORIENTED_EDGE('',*,*,#296,.T.);
#409=ORIENTED_EDGE('',*,*,#297,.T.);
#410=ORIENTED_EDGE('',*,*,#293,.T.);
#411=ORIENTED_EDGE('',*,*,#253,.F.);
#412=ORIENTED_EDGE('',*,*,#248,.T.);
#413=ORIENTED_EDGE('',*,*,#280,.T.);
#414=ORIENTED_EDGE('',*,*,#282,.T.);
#415=ORIENTED_EDGE('',*,*,#292,.T.);
#416=ORIENTED_EDGE('',*,*,#258,.T.);
#417=ORIENTED_EDGE('',*,*,#276,.F.);
#418=ORIENTED_EDGE('',*,*,#298,.F.);
#419=ORIENTED_EDGE('',*,*,#272,.F.);
#420=ORIENTED_EDGE('',*,*,#299,.F.);
#421=ORIENTED_EDGE('',*,*,#274,.F.);
#422=ORIENTED_EDGE('',*,*,#243,.T.);
#423=ORIENTED_EDGE('',*,*,#288,.T.);
#424=ORIENTED_EDGE('',*,*,#291,.T.);
#425=ORIENTED_EDGE('',*,*,#285,.T.);
#426=CYLINDRICAL_SURFACE('',#483,8.);
#427=CYLINDRICAL_SURFACE('',#489,8.);
#428=CYLINDRICAL_SURFACE('',#494,5.);
#429=CYLINDRICAL_SURFACE('',#498,16.);
#430=CYLINDRICAL_SURFACE('',#501,16.);
#431=CYLINDRICAL_SURFACE('',#504,16.);
#432=CYLINDRICAL_SURFACE('',#507,6.5);
#433=CYLINDRICAL_SURFACE('',#509,6.5);
#434=CYLINDRICAL_SURFACE('',#511,6.);
#435=ADVANCED_FACE('',(#41),#426,.T.);
#436=ADVANCED_FACE('',(#42,#20),#26,.T.);
#437=ADVANCED_FACE('',(#43),#27,.T.);
#438=ADVANCED_FACE('',(#44),#427,.T.);
#439=ADVANCED_FACE('',(#45,#21),#28,.T.);
#440=ADVANCED_FACE('',(#46),#428,.F.);
#441=ADVANCED_FACE('',(#47),#15,.F.);
#442=ADVANCED_FACE('',(#48),#429,.T.);
#443=ADVANCED_FACE('',(#49),#430,.F.);
#444=ADVANCED_FACE('',(#50),#431,.F.);
#445=ADVANCED_FACE('',(#51),#432,.F.);
#446=ADVANCED_FACE('',(#52),#433,.F.);
#447=ADVANCED_FACE('',(#53),#434,.F.);
#448=ADVANCED_FACE('',(#54,#22),#29,.T.);
#449=ADVANCED_FACE('',(#55),#30,.T.);
#450=ADVANCED_FACE('',(#56),#31,.T.);
#451=ADVANCED_FACE('',(#57),#32,.T.);
#452=ADVANCED_FACE('',(#58),#33,.F.);
#453=ADVANCED_FACE('',(#59),#34,.T.);
#454=ADVANCED_FACE('',(#60),#35,.T.);
#455=ADVANCED_FACE('',(#61),#36,.T.);
#456=ADVANCED_FACE('',(#62),#37,.T.);
#457=ADVANCED_FACE('',(#63),#38,.T.);
#458=ADVANCED_FACE('',(#64,#23,#24),#39,.T.);
#459=ADVANCED_FACE('',(#65,#25),#40,.F.);
#460=CLOSED_SHELL('',(#435,#436,#437,#438,#439,#440,#441,#442,#443,#444,
#445,#446,#447,#448,#449,#450,#451,#452,#453,#454,#455,#456,#457,#458,#459));
#461=DERIVED_UNIT_ELEMENT(#464,1.);
#462=DERIVED_UNIT_ELEMENT(#813,-3.);
#463=DIMENSIONAL_EXPONENTS(0.,1.,0.,0.,0.,0.,0.);
#464=(
CONVERSION_BASED_UNIT('gram',#466)
MASS_UNIT()
NAMED_UNIT(#463)
);
#465=(
MASS_UNIT()
NAMED_UNIT(*)
SI_UNIT(.KILO.,.GRAM.)
);
#466=MASS_MEASURE_WITH_UNIT(MASS_MEASURE(0.001),#465);
#467=DERIVED_UNIT((#461,#462));
#468=MEASURE_REPRESENTATION_ITEM('density measure',
POSITIVE_RATIO_MEASURE(7.85),#467);
#469=PROPERTY_DEFINITION_REPRESENTATION(#474,#471);
#470=PROPERTY_DEFINITION_REPRESENTATION(#475,#472);
#471=REPRESENTATION('material name',(#473),#810);
#472=REPRESENTATION('density',(#468),#810);
#473=DESCRIPTIVE_REPRESENTATION_ITEM('Steel, Carbon','Steel, Carbon');
#474=PROPERTY_DEFINITION('material property','material name',#820);
#475=PROPERTY_DEFINITION('material property','density of part',#820);
#476=DATE_TIME_ROLE('creation_date');
#477=APPLIED_DATE_AND_TIME_ASSIGNMENT(#478,#476,(#820));
#478=DATE_AND_TIME(#479,#480);
#479=CALENDAR_DATE(2025,9,3);
#480=LOCAL_TIME(0,0,0.,#481);
#481=COORDINATED_UNIVERSAL_TIME_OFFSET(0,0,.BEHIND.);
#482=AXIS2_PLACEMENT_3D('',#655,#526,#527);
#483=AXIS2_PLACEMENT_3D('',#656,#528,#529);
#484=AXIS2_PLACEMENT_3D('',#659,#530,#531);
#485=AXIS2_PLACEMENT_3D('',#663,#533,#534);
#486=AXIS2_PLACEMENT_3D('',#665,#536,#537);
#487=AXIS2_PLACEMENT_3D('',#678,#544,#545);
#488=AXIS2_PLACEMENT_3D('',#679,#546,#547);
#489=AXIS2_PLACEMENT_3D('',#687,#552,#553);
#490=AXIS2_PLACEMENT_3D('',#689,#554,#555);
#491=AXIS2_PLACEMENT_3D('',#691,#556,#557);
#492=AXIS2_PLACEMENT_3D('',#693,#559,#560);
#493=AXIS2_PLACEMENT_3D('',#704,#566,#567);
#494=AXIS2_PLACEMENT_3D('',#705,#568,#569);
#495=AXIS2_PLACEMENT_3D('',#726,#572,#573);
#496=AXIS2_PLACEMENT_3D('',#736,#574,#575);
#497=AXIS2_PLACEMENT_3D('',#744,#576,#577);
#498=AXIS2_PLACEMENT_3D('',#745,#578,#579);
#499=AXIS2_PLACEMENT_3D('',#748,#581,#582);
#500=AXIS2_PLACEMENT_3D('',#751,#584,#585);
#501=AXIS2_PLACEMENT_3D('',#752,#586,#587);
#502=AXIS2_PLACEMENT_3D('',#754,#588,#589);
#503=AXIS2_PLACEMENT_3D('',#756,#590,#591);
#504=AXIS2_PLACEMENT_3D('',#758,#593,#594);
#505=AXIS2_PLACEMENT_3D('',#760,#595,#596);
#506=AXIS2_PLACEMENT_3D('',#762,#597,#598);
#507=AXIS2_PLACEMENT_3D('',#764,#600,#601);
#508=AXIS2_PLACEMENT_3D('',#767,#603,#604);
#509=AXIS2_PLACEMENT_3D('',#768,#605,#606);
#510=AXIS2_PLACEMENT_3D('',#771,#608,#609);
#511=AXIS2_PLACEMENT_3D('',#772,#610,#611);
#512=AXIS2_PLACEMENT_3D('',#774,#612,#613);
#513=AXIS2_PLACEMENT_3D('',#777,#615,#616);
#514=AXIS2_PLACEMENT_3D('',#778,#617,#618);
#515=AXIS2_PLACEMENT_3D('',#779,#619,#620);
#516=AXIS2_PLACEMENT_3D('',#782,#623,#624);
#517=AXIS2_PLACEMENT_3D('',#786,#627,#628);
#518=AXIS2_PLACEMENT_3D('',#790,#631,#632);
#519=AXIS2_PLACEMENT_3D('',#792,#634,#635);
#520=AXIS2_PLACEMENT_3D('',#796,#638,#639);
#521=AXIS2_PLACEMENT_3D('',#800,#642,#643);
#522=AXIS2_PLACEMENT_3D('',#802,#645,#646);
#523=AXIS2_PLACEMENT_3D('',#804,#648,#649);
#524=AXIS2_PLACEMENT_3D('',#806,#651,#652);
#525=AXIS2_PLACEMENT_3D('',#807,#653,#654);
#526=DIRECTION('axis',(0.,0.,1.));
#527=DIRECTION('refdir',(1.,0.,0.));
#528=DIRECTION('center_axis',(0.,1.,0.));
#529=DIRECTION('ref_axis',(0.707106781186548,0.,-0.707106781186547));
#530=DIRECTION('center_axis',(0.,-1.,0.));
#531=DIRECTION('ref_axis',(0.707106781186548,0.,-0.707106781186547));
#532=DIRECTION('',(0.,-1.,0.));
#533=DIRECTION('center_axis',(0.,1.,0.));
#534=DIRECTION('ref_axis',(0.707106781186548,0.,-0.707106781186547));
#535=DIRECTION('',(0.,1.,0.));
#536=DIRECTION('center_axis',(0.,1.,0.));
#537=DIRECTION('ref_axis',(0.,0.,1.));
#538=DIRECTION('',(-1.,0.,-1.80036166155431E-16));
#539=DIRECTION('',(0.,0.,1.));
#540=DIRECTION('',(-1.,0.,0.));
#541=DIRECTION('',(0.,0.,-1.));
#542=DIRECTION('',(1.,0.,2.70054249233146E-16));
#543=DIRECTION('',(3.86164530304402E-16,0.,-1.));
#544=DIRECTION('center_axis',(0.,-1.,0.));
#545=DIRECTION('ref_axis',(1.,0.,0.));
#546=DIRECTION('center_axis',(1.80036166155431E-16,0.,-1.));
#547=DIRECTION('ref_axis',(-1.,0.,-1.80036166155431E-16));
#548=DIRECTION('',(1.,0.,1.80036166155431E-16));
#549=DIRECTION('',(0.,-1.,0.));
#550=DIRECTION('',(-1.,0.,-1.80036166155431E-16));
#551=DIRECTION('',(-1.,0.,-1.80036166155431E-16));
#552=DIRECTION('center_axis',(0.,1.,0.));
#553=DIRECTION('ref_axis',(-0.707106781186548,0.,-0.707106781186548));
#554=DIRECTION('center_axis',(0.,-1.,0.));
#555=DIRECTION('ref_axis',(-0.707106781186548,0.,-0.707106781186548));
#556=DIRECTION('center_axis',(0.,1.,0.));
#557=DIRECTION('ref_axis',(-0.707106781186548,0.,-0.707106781186548));
#558=DIRECTION('',(0.,1.,0.));
#559=DIRECTION('center_axis',(0.,1.,0.));
#560=DIRECTION('ref_axis',(0.,0.,1.));
#561=DIRECTION('',(-1.93082265152201E-16,0.,1.));
#562=DIRECTION('',(1.,0.,2.70054249233146E-16));
#563=DIRECTION('',(0.,0.,1.));
#564=DIRECTION('',(-1.,0.,0.));
#565=DIRECTION('',(0.,0.,-1.));
#566=DIRECTION('center_axis',(0.,-1.,0.));
#567=DIRECTION('ref_axis',(1.,0.,0.));
#568=DIRECTION('center_axis',(1.,0.,0.));
#569=DIRECTION('ref_axis',(0.,-0.707106781186547,-0.707106781186547));
#570=DIRECTION('',(1.,0.,2.70054249233146E-16));
#571=DIRECTION('',(-1.,0.,0.));
#572=DIRECTION('center_axis',(0.,0.,-1.));
#573=DIRECTION('ref_axis',(0.00768942419166036,-0.999970435940784,0.));
#574=DIRECTION('center_axis',(2.70054249233146E-16,0.,-1.));
#575=DIRECTION('ref_axis',(1.,0.,0.));
#576=DIRECTION('center_axis',(0.,0.,1.));
#577=DIRECTION('ref_axis',(6.12323399573676E-17,-1.,0.));
#578=DIRECTION('center_axis',(0.,0.,1.));
#579=DIRECTION('ref_axis',(1.,0.,0.));
#580=DIRECTION('',(0.,0.,1.));
#581=DIRECTION('center_axis',(2.70054249233146E-16,0.,-1.));
#582=DIRECTION('ref_axis',(1.,0.,0.));
#583=DIRECTION('',(0.,0.,1.));
#584=DIRECTION('center_axis',(0.,0.,1.));
#585=DIRECTION('ref_axis',(1.,0.,0.));
#586=DIRECTION('center_axis',(0.,0.,-1.));
#587=DIRECTION('ref_axis',(-0.707106781186548,-0.707106781186548,0.));
#588=DIRECTION('center_axis',(0.,0.,1.));
#589=DIRECTION('ref_axis',(-0.707106781186548,-0.707106781186548,0.));
#590=DIRECTION('center_axis',(0.,0.,-1.));
#591=DIRECTION('ref_axis',(-0.707106781186548,-0.707106781186548,0.));
#592=DIRECTION('',(0.,0.,1.));
#593=DIRECTION('center_axis',(0.,0.,1.));
#594=DIRECTION('ref_axis',(0.707106781186548,-0.707106781186547,0.));
#595=DIRECTION('center_axis',(0.,0.,-1.));
#596=DIRECTION('ref_axis',(0.707106781186548,-0.707106781186547,0.));
#597=DIRECTION('center_axis',(0.,0.,1.));
#598=DIRECTION('ref_axis',(0.707106781186548,-0.707106781186547,0.));
#599=DIRECTION('',(0.,0.,-1.));
#600=DIRECTION('center_axis',(0.,1.,0.));
#601=DIRECTION('ref_axis',(1.,0.,0.));
#602=DIRECTION('',(0.,-1.,0.));
#603=DIRECTION('center_axis',(0.,1.,0.));
#604=DIRECTION('ref_axis',(1.,0.,0.));
#605=DIRECTION('center_axis',(0.,1.,0.));
#606=DIRECTION('ref_axis',(1.,0.,0.));
#607=DIRECTION('',(0.,-1.,0.));
#608=DIRECTION('center_axis',(0.,1.,0.));
#609=DIRECTION('ref_axis',(1.,0.,0.));
#610=DIRECTION('center_axis',(-2.70054249233146E-16,0.,1.));
#611=DIRECTION('ref_axis',(1.,0.,2.70054249233146E-16));
#612=DIRECTION('center_axis',(2.70054249233146E-16,0.,-1.));
#613=DIRECTION('ref_axis',(1.,0.,2.70054249233146E-16));
#614=DIRECTION('',(2.70054249233146E-16,0.,-1.));
#615=DIRECTION('center_axis',(0.,0.,1.));
#616=DIRECTION('ref_axis',(1.,0.,2.70054249233146E-16));
#617=DIRECTION('center_axis',(-2.70054249233146E-16,0.,1.));
#618=DIRECTION('ref_axis',(1.,0.,2.70054249233146E-16));
#619=DIRECTION('center_axis',(0.,0.,1.));
#620=DIRECTION('ref_axis',(1.,0.,0.));
#621=DIRECTION('',(1.43254583822601E-16,1.,0.));
#622=DIRECTION('',(1.43254583822601E-16,-1.,0.));
#623=DIRECTION('center_axis',(1.,0.,0.));
#624=DIRECTION('ref_axis',(0.,0.,-1.));
#625=DIRECTION('',(0.,1.,0.));
#626=DIRECTION('',(0.,-0.8,-0.6));
#627=DIRECTION('center_axis',(0.,0.6,-0.8));
#628=DIRECTION('ref_axis',(-1.,0.,0.));
#629=DIRECTION('',(0.,0.8,0.6));
#630=DIRECTION('',(-1.,0.,0.));
#631=DIRECTION('center_axis',(1.,0.,0.));
#632=DIRECTION('ref_axis',(0.,0.,-1.));
#633=DIRECTION('',(0.,-1.,0.));
#634=DIRECTION('center_axis',(-1.,0.,-1.93082265152201E-16));
#635=DIRECTION('ref_axis',(-1.93082265152201E-16,0.,1.));
#636=DIRECTION('',(1.93082265152201E-16,0.,-1.));
#637=DIRECTION('',(0.,1.,0.));
#638=DIRECTION('center_axis',(1.,0.,3.86164530304402E-16));
#639=DIRECTION('ref_axis',(3.86164530304402E-16,0.,-1.));
#640=DIRECTION('',(0.,1.,0.));
#641=DIRECTION('',(-3.86164530304402E-16,0.,1.));
#642=DIRECTION('center_axis',(-2.70054249233146E-16,0.,1.));
#643=DIRECTION('ref_axis',(1.,0.,2.70054249233146E-16));
#644=DIRECTION('',(-1.,0.,-2.70054249233146E-16));
#645=DIRECTION('center_axis',(-1.,-1.43254583822601E-16,0.));
#646=DIRECTION('ref_axis',(1.43254583822601E-16,-1.,0.));
#647=DIRECTION('',(1.43254583822601E-16,-1.,0.));
#648=DIRECTION('center_axis',(1.,-1.43254583822601E-16,0.));
#649=DIRECTION('ref_axis',(1.43254583822601E-16,1.,0.));
#650=DIRECTION('',(1.43254583822601E-16,1.,0.));
#651=DIRECTION('center_axis',(0.,-1.,0.));
#652=DIRECTION('ref_axis',(1.,0.,0.));
#653=DIRECTION('center_axis',(0.,0.,1.));
#654=DIRECTION('ref_axis',(1.,0.,0.));
#655=CARTESIAN_POINT('',(0.,0.,0.));
#656=CARTESIAN_POINT('Origin',(29.,0.,-22.));
#657=CARTESIAN_POINT('',(29.,10.,-30.));
#658=CARTESIAN_POINT('',(37.,10.,-22.));
#659=CARTESIAN_POINT('Origin',(29.,10.,-22.));
#660=CARTESIAN_POINT('',(37.,0.,-22.));
#661=CARTESIAN_POINT('',(37.,0.,-22.));
#662=CARTESIAN_POINT('',(29.,0.,-30.));
#663=CARTESIAN_POINT('Origin',(29.,0.,-22.));
#664=CARTESIAN_POINT('',(29.,0.,-30.));
#665=CARTESIAN_POINT('Origin',(0.,10.,-7.));
#666=CARTESIAN_POINT('',(5.,10.,-30.));
#667=CARTESIAN_POINT('',(-37.,10.,-30.));
#668=CARTESIAN_POINT('',(5.,10.,0.));
#669=CARTESIAN_POINT('',(5.,10.,-0.028006589785825));
#670=CARTESIAN_POINT('',(32.,10.,0.));
#671=CARTESIAN_POINT('',(0.,10.,0.));
#672=CARTESIAN_POINT('',(32.,10.,16.));
#673=CARTESIAN_POINT('',(32.,10.,-3.5));
#674=CARTESIAN_POINT('',(37.,10.,16.));
#675=CARTESIAN_POINT('',(37.,10.,16.));
#676=CARTESIAN_POINT('',(37.,10.,-30.));
#677=CARTESIAN_POINT('',(18.5,10.,-18.));
#678=CARTESIAN_POINT('Origin',(25.,10.,-18.));
#679=CARTESIAN_POINT('Origin',(37.,0.,-30.));
#680=CARTESIAN_POINT('',(-29.,0.,-30.));
#681=CARTESIAN_POINT('',(-37.,0.,-30.));
#682=CARTESIAN_POINT('',(-29.,10.,-30.));
#683=CARTESIAN_POINT('',(-29.,0.,-30.));
#684=CARTESIAN_POINT('',(-5.,10.,-30.));
#685=CARTESIAN_POINT('',(-37.,10.,-30.));
#686=CARTESIAN_POINT('',(-37.,10.,-30.));
#687=CARTESIAN_POINT('Origin',(-29.,0.,-22.));
#688=CARTESIAN_POINT('',(-37.,10.,-22.));
#689=CARTESIAN_POINT('Origin',(-29.,10.,-22.));
#690=CARTESIAN_POINT('',(-37.,0.,-22.));
#691=CARTESIAN_POINT('Origin',(-29.,0.,-22.));
#692=CARTESIAN_POINT('',(-37.,0.,-22.));
#693=CARTESIAN_POINT('Origin',(0.,10.,-7.));
#694=CARTESIAN_POINT('',(-37.,10.,16.));
#695=CARTESIAN_POINT('',(-37.,10.,16.));
#696=CARTESIAN_POINT('',(-32.,10.,16.));
#697=CARTESIAN_POINT('',(37.,10.,16.));
#698=CARTESIAN_POINT('',(-32.,10.,0.));
#699=CARTESIAN_POINT('',(-32.,10.,-3.5));
#700=CARTESIAN_POINT('',(-5.,10.,0.));
#701=CARTESIAN_POINT('',(0.,10.,0.));
#702=CARTESIAN_POINT('',(-5.,10.,-0.0280065897858245));
#703=CARTESIAN_POINT('',(-31.5,10.,-18.));
#704=CARTESIAN_POINT('Origin',(-25.,10.,-18.));
#705=CARTESIAN_POINT('Origin',(0.,15.,16.));
#706=CARTESIAN_POINT('',(-20.3810499613778,15.,11.));
#707=CARTESIAN_POINT('Ctrl Pts',(-20.3810499613778,15.,11.));
#708=CARTESIAN_POINT('Ctrl Pts',(-21.1695456682846,14.1671370705256,11.));
#709=CARTESIAN_POINT('Ctrl Pts',(-22.0291161631189,13.4374863912903,11.1991440572652));
#710=CARTESIAN_POINT('Ctrl Pts',(-23.8617888429574,12.1795517109043,11.8125499286748));
#711=CARTESIAN_POINT('Ctrl Pts',(-24.8344187930646,11.6527808895985,12.2313164797055));
#712=CARTESIAN_POINT('Ctrl Pts',(-27.8522171666362,10.3940027521699,13.6732827684264));
#713=CARTESIAN_POINT('Ctrl Pts',(-29.9978022444062,10.,14.8807374285237));
#714=CARTESIAN_POINT('Ctrl Pts',(-32.,10.,16.));
#715=CARTESIAN_POINT('',(37.,10.,16.));
#716=CARTESIAN_POINT('',(20.3810499613778,15.,11.));
#717=CARTESIAN_POINT('Ctrl Pts',(32.,10.,16.));
#718=CARTESIAN_POINT('Ctrl Pts',(29.9978022444062,10.,14.8807374285237));
#719=CARTESIAN_POINT('Ctrl Pts',(27.8522171666362,10.3940027521699,13.6732827684264));
#720=CARTESIAN_POINT('Ctrl Pts',(24.8344187930646,11.6527808895985,12.2313164797055));
#721=CARTESIAN_POINT('Ctrl Pts',(23.8617888429574,12.1795517109043,11.8125499286748));
#722=CARTESIAN_POINT('Ctrl Pts',(22.0291161631189,13.4374863912903,11.1991440572652));
#723=CARTESIAN_POINT('Ctrl Pts',(21.1695456682845,14.1671370705256,11.));
#724=CARTESIAN_POINT('Ctrl Pts',(20.3810499613778,15.,11.));
#725=CARTESIAN_POINT('',(0.,15.,11.));
#726=CARTESIAN_POINT('Origin',(-7.7715611723761E-15,62.,16.));
#727=CARTESIAN_POINT('',(16.,48.3985294912646,11.));
#728=CARTESIAN_POINT('',(16.,62.,16.));
#729=CARTESIAN_POINT('Ctrl Pts',(16.,48.3985294912646,11.));
#730=CARTESIAN_POINT('Ctrl Pts',(16.,50.7273100301535,11.));
#731=CARTESIAN_POINT('Ctrl Pts',(16.,53.1154238052159,11.6720431620249));
#732=CARTESIAN_POINT('Ctrl Pts',(16.,57.734645678879,13.6056953253135));
#733=CARTESIAN_POINT('Ctrl Pts',(16.,59.9672736959241,14.8636714511086));
#734=CARTESIAN_POINT('Ctrl Pts',(16.,62.,16.));
#735=CARTESIAN_POINT('',(-16.,62.,16.));
#736=CARTESIAN_POINT('Origin',(-7.7715611723761E-15,62.,16.));
#737=CARTESIAN_POINT('',(-16.,48.3985294912646,11.));
#738=CARTESIAN_POINT('Ctrl Pts',(-16.,62.,16.));
#739=CARTESIAN_POINT('Ctrl Pts',(-16.,59.9672736959241,14.8636714511086));
#740=CARTESIAN_POINT('Ctrl Pts',(-16.,57.7346456788789,13.6056953253135));
#741=CARTESIAN_POINT('Ctrl Pts',(-16.,53.1154238052159,11.6720431620248));
#742=CARTESIAN_POINT('Ctrl Pts',(-16.,50.7273100301535,11.));
#743=CARTESIAN_POINT('Ctrl Pts',(-16.,48.3985294912646,11.));
#744=CARTESIAN_POINT('Origin',(-7.7715611723761E-15,62.,11.));
#745=CARTESIAN_POINT('Origin',(-7.7715611723761E-15,62.,0.));
#746=CARTESIAN_POINT('',(-16.,62.,0.));
#747=CARTESIAN_POINT('',(-16.,62.,0.));
#748=CARTESIAN_POINT('Origin',(-7.7715611723761E-15,62.,16.));
#749=CARTESIAN_POINT('',(16.,62.,0.));
#750=CARTESIAN_POINT('',(16.,62.,0.));
#751=CARTESIAN_POINT('Origin',(-7.7715611723761E-15,62.,0.));
#752=CARTESIAN_POINT('Origin',(32.,26.,-3.5));
#753=CARTESIAN_POINT('',(16.,26.,11.));
#754=CARTESIAN_POINT('Origin',(32.,26.,11.));
#755=CARTESIAN_POINT('',(16.,26.,0.));
#756=CARTESIAN_POINT('Origin',(32.,26.,0.));
#757=CARTESIAN_POINT('',(16.,26.,-3.5));
#758=CARTESIAN_POINT('Origin',(-32.,26.,-3.5));
#759=CARTESIAN_POINT('',(-16.,26.,0.));
#760=CARTESIAN_POINT('Origin',(-32.,26.,0.));
#761=CARTESIAN_POINT('',(-16.,26.,11.));
#762=CARTESIAN_POINT('Origin',(-32.,26.,11.));
#763=CARTESIAN_POINT('',(-16.,26.,-3.5));
#764=CARTESIAN_POINT('Origin',(25.,-106.94443124835,-18.));
#765=CARTESIAN_POINT('',(18.5,0.,-18.));
#766=CARTESIAN_POINT('',(18.5,-106.94443124835,-18.));
#767=CARTESIAN_POINT('Origin',(25.,0.,-18.));
#768=CARTESIAN_POINT('Origin',(-25.,-106.94443124835,-18.));
#769=CARTESIAN_POINT('',(-31.5,0.,-18.));
#770=CARTESIAN_POINT('',(-31.5,-106.94443124835,-18.));
#771=CARTESIAN_POINT('Origin',(-25.,0.,-18.));
#772=CARTESIAN_POINT('Origin',(2.38097794103943E-14,62.,-100.94443124835));
#773=CARTESIAN_POINT('',(-6.00000000000001,62.,16.));
#774=CARTESIAN_POINT('Origin',(-7.7715611723761E-15,62.,16.));
#775=CARTESIAN_POINT('',(-6.,62.,-1.62032549539888E-15));
#776=CARTESIAN_POINT('',(-5.99999999999998,62.,-100.94443124835));
#777=CARTESIAN_POINT('Origin',(-3.45069318464576E-15,62.,0.));
#778=CARTESIAN_POINT('Origin',(-8.88178419700125E-15,62.,16.));
#779=CARTESIAN_POINT('Origin',(0.,39.,11.));
#780=CARTESIAN_POINT('',(16.,0.,11.));
#781=CARTESIAN_POINT('',(-16.,62.,11.));
#782=CARTESIAN_POINT('Origin',(5.,16.1666666666667,6.94398682042835));
#783=CARTESIAN_POINT('',(5.,50.,0.));
#784=CARTESIAN_POINT('',(5.,27.5833333333333,0.));
#785=CARTESIAN_POINT('',(5.,-20.6666666666667,-53.));
#786=CARTESIAN_POINT('Origin',(0.,10.,-30.));
#787=CARTESIAN_POINT('',(-5.,50.,0.));
#788=CARTESIAN_POINT('',(-5.,102.,39.));
#789=CARTESIAN_POINT('',(0.,50.,-2.22044604925031E-15));
#790=CARTESIAN_POINT('Origin',(-5.,16.1666666666667,6.94398682042835));
#791=CARTESIAN_POINT('',(-5.,27.5833333333333,0.));
#792=CARTESIAN_POINT('Origin',(-37.,0.,-30.));
#793=CARTESIAN_POINT('',(-37.,0.,16.));
#794=CARTESIAN_POINT('',(-37.,0.,16.));
#795=CARTESIAN_POINT('',(-37.,0.,16.));
#796=CARTESIAN_POINT('Origin',(37.,0.,16.));
#797=CARTESIAN_POINT('',(37.,0.,16.));
#798=CARTESIAN_POINT('',(37.,0.,16.));
#799=CARTESIAN_POINT('',(37.,0.,-30.));
#800=CARTESIAN_POINT('Origin',(-37.,0.,16.));
#801=CARTESIAN_POINT('',(37.,0.,16.));
#802=CARTESIAN_POINT('Origin',(-16.,62.,0.));
#803=CARTESIAN_POINT('',(-16.,62.,0.));
#804=CARTESIAN_POINT('Origin',(16.,0.,0.));
#805=CARTESIAN_POINT('',(16.,0.,0.));
#806=CARTESIAN_POINT('Origin',(-16.,0.,0.));
#807=CARTESIAN_POINT('Origin',(0.,39.,0.));
#808=UNCERTAINTY_MEASURE_WITH_UNIT(LENGTH_MEASURE(0.01),#812,
'DISTANCE_ACCURACY_VALUE',
'Maximum model space distance between geometric entities at asserted c
onnectivities');
#809=UNCERTAINTY_MEASURE_WITH_UNIT(LENGTH_MEASURE(0.01),#812,
'DISTANCE_ACCURACY_VALUE',
'Maximum model space distance between geometric entities at asserted c
onnectivities');
#810=(
GEOMETRIC_REPRESENTATION_CONTEXT(3)
GLOBAL_UNCERTAINTY_ASSIGNED_CONTEXT((#808))
GLOBAL_UNIT_ASSIGNED_CONTEXT((#812,#814,#815))
REPRESENTATION_CONTEXT('','3D')
);
#811=(
GEOMETRIC_REPRESENTATION_CONTEXT(3)
GLOBAL_UNCERTAINTY_ASSIGNED_CONTEXT((#809))
GLOBAL_UNIT_ASSIGNED_CONTEXT((#812,#814,#815))
REPRESENTATION_CONTEXT('','3D')
);
#812=(
LENGTH_UNIT()
NAMED_UNIT(*)
SI_UNIT(.MILLI.,.METRE.)
);
#813=(
LENGTH_UNIT()
NAMED_UNIT(*)
SI_UNIT(.CENTI.,.METRE.)
);
#814=(
NAMED_UNIT(*)
PLANE_ANGLE_UNIT()
SI_UNIT($,.RADIAN.)
);
#815=(
NAMED_UNIT(*)
SI_UNIT($,.STERADIAN.)
SOLID_ANGLE_UNIT()
);
#816=SHAPE_DEFINITION_REPRESENTATION(#817,#818);
#817=PRODUCT_DEFINITION_SHAPE('',$,#820);
#818=SHAPE_REPRESENTATION('',(#482),#810);
#819=PRODUCT_DEFINITION_CONTEXT('part definition',#824,'design');
#820=PRODUCT_DEFINITION('02-bracket','02-bracket',#821,#819);
#821=PRODUCT_DEFINITION_FORMATION('',$,#826);
#822=PRODUCT_RELATED_PRODUCT_CATEGORY('02-bracket','02-bracket',(#826));
#823=APPLICATION_PROTOCOL_DEFINITION('international standard',
'automotive_design',2009,#824);
#824=APPLICATION_CONTEXT(
'Core Data for Automotive Mechanical Design Process');
#825=PRODUCT_CONTEXT('part definition',#824,'mechanical');
#826=PRODUCT('02-bracket','02-bracket',$,(#825));
#827=PRESENTATION_STYLE_ASSIGNMENT((#828));
#828=SURFACE_STYLE_USAGE(.BOTH.,#831);
#829=SURFACE_STYLE_RENDERING_WITH_PROPERTIES($,#835,(#830));
#830=SURFACE_STYLE_TRANSPARENT(0.);
#831=SURFACE_SIDE_STYLE('',(#832,#829));
#832=SURFACE_STYLE_FILL_AREA(#833);
#833=FILL_AREA_STYLE('',(#834));
#834=FILL_AREA_STYLE_COLOUR('',#835);
#835=COLOUR_RGB('',0.745098039215686,0.737254901960784,0.729411764705882);
ENDSEC;
END-ISO-10303-21;
