ISO-10303-21;
HEADER;
/* Generated by software containing ST-Developer
 * from STEP Tools, Inc. (www.steptools.com) 
 */

FILE_DESCRIPTION(
/* description */ (''),
/* implementation_level */ '2;1');

FILE_NAME(
/* name */ '03-bushing.stp',
/* time_stamp */ '2025-03-10T15:56:36+03:00',
/* author */ ('DuctopwH'),
/* organization */ (''),
/* preprocessor_version */ 'ST-DEVELOPER v19.2',
/* originating_system */ 'Autodesk Inventor 2024',
/* authorisation */ '');

FILE_SCHEMA (('AUTOMOTIVE_DESIGN { 1 0 10303 214 3 1 1 }'));
ENDSEC;

DATA;
#10=MECHANICAL_DESIGN_GEOMETRIC_PRESENTATION_REPRESENTATION('',(#13),#214);
#11=SHAPE_REPRESENTATION_RELATIONSHIP('SRR','None',#221,#12);
#12=ADVANCED_BREP_SHAPE_REPRESENTATION('',(#14),#213);
#13=STYLED_ITEM('',(#230),#14);
#14=MANIFOLD_SOLID_BREP('Solid1',#109);
#15=FACE_BOUND('',#34,.T.);
#16=FACE_BOUND('',#37,.T.);
#17=FACE_BOUND('',#40,.T.);
#18=PLANE('',#138);
#19=PLANE('',#142);
#20=PLANE('',#146);
#21=CYLINDRICAL_SURFACE('',#136,12.5);
#22=CYLINDRICAL_SURFACE('',#140,10.);
#23=CYLINDRICAL_SURFACE('',#144,16.);
#24=FACE_OUTER_BOUND('',#31,.T.);
#25=FACE_OUTER_BOUND('',#32,.T.);
#26=FACE_OUTER_BOUND('',#33,.T.);
#27=FACE_OUTER_BOUND('',#35,.T.);
#28=FACE_OUTER_BOUND('',#36,.T.);
#29=FACE_OUTER_BOUND('',#38,.T.);
#30=FACE_OUTER_BOUND('',#39,.T.);
#31=EDGE_LOOP('',(#77,#78,#79,#80,#81));
#32=EDGE_LOOP('',(#82,#83,#84,#85,#86));
#33=EDGE_LOOP('',(#87));
#34=EDGE_LOOP('',(#88));
#35=EDGE_LOOP('',(#89,#90,#91,#92));
#36=EDGE_LOOP('',(#93));
#37=EDGE_LOOP('',(#94));
#38=EDGE_LOOP('',(#95,#96,#97,#98));
#39=EDGE_LOOP('',(#99));
#40=EDGE_LOOP('',(#100));
#41=LINE('',#188,#45);
#42=LINE('',#194,#46);
#43=LINE('',#201,#47);
#44=LINE('',#209,#48);
#45=VECTOR('',#153,12.25);
#46=VECTOR('',#160,12.5);
#47=VECTOR('',#169,10.);
#48=VECTOR('',#180,16.);
#49=CIRCLE('',#133,12.);
#50=CIRCLE('',#134,12.5);
#51=CIRCLE('',#135,12.5);
#52=CIRCLE('',#137,12.5);
#53=CIRCLE('',#139,10.);
#54=CIRCLE('',#141,9.99999999999999);
#55=CIRCLE('',#143,16.);
#56=CIRCLE('',#145,16.);
#57=VERTEX_POINT('',#185);
#58=VERTEX_POINT('',#187);
#59=VERTEX_POINT('',#189);
#60=VERTEX_POINT('',#193);
#61=VERTEX_POINT('',#197);
#62=VERTEX_POINT('',#200);
#63=VERTEX_POINT('',#204);
#64=VERTEX_POINT('',#207);
#65=EDGE_CURVE('',#57,#57,#49,.T.);
#66=EDGE_CURVE('',#57,#58,#41,.T.);
#67=EDGE_CURVE('',#58,#59,#50,.T.);
#68=EDGE_CURVE('',#59,#58,#51,.T.);
#69=EDGE_CURVE('',#59,#60,#42,.T.);
#70=EDGE_CURVE('',#60,#60,#52,.T.);
#71=EDGE_CURVE('',#61,#61,#53,.T.);
#72=EDGE_CURVE('',#61,#62,#43,.T.);
#73=EDGE_CURVE('',#62,#62,#54,.T.);
#74=EDGE_CURVE('',#63,#63,#55,.T.);
#75=EDGE_CURVE('',#64,#64,#56,.T.);
#76=EDGE_CURVE('',#64,#63,#44,.T.);
#77=ORIENTED_EDGE('',*,*,#65,.T.);
#78=ORIENTED_EDGE('',*,*,#66,.T.);
#79=ORIENTED_EDGE('',*,*,#67,.T.);
#80=ORIENTED_EDGE('',*,*,#68,.T.);
#81=ORIENTED_EDGE('',*,*,#66,.F.);
#82=ORIENTED_EDGE('',*,*,#67,.F.);
#83=ORIENTED_EDGE('',*,*,#68,.F.);
#84=ORIENTED_EDGE('',*,*,#69,.T.);
#85=ORIENTED_EDGE('',*,*,#70,.T.);
#86=ORIENTED_EDGE('',*,*,#69,.F.);
#87=ORIENTED_EDGE('',*,*,#65,.F.);
#88=ORIENTED_EDGE('',*,*,#71,.F.);
#89=ORIENTED_EDGE('',*,*,#71,.T.);
#90=ORIENTED_EDGE('',*,*,#72,.T.);
#91=ORIENTED_EDGE('',*,*,#73,.F.);
#92=ORIENTED_EDGE('',*,*,#72,.F.);
#93=ORIENTED_EDGE('',*,*,#74,.F.);
#94=ORIENTED_EDGE('',*,*,#73,.T.);
#95=ORIENTED_EDGE('',*,*,#75,.F.);
#96=ORIENTED_EDGE('',*,*,#76,.T.);
#97=ORIENTED_EDGE('',*,*,#74,.T.);
#98=ORIENTED_EDGE('',*,*,#76,.F.);
#99=ORIENTED_EDGE('',*,*,#75,.T.);
#100=ORIENTED_EDGE('',*,*,#70,.F.);
#101=CONICAL_SURFACE('',#132,12.25,0.785398163397446);
#102=ADVANCED_FACE('',(#24),#101,.T.);
#103=ADVANCED_FACE('',(#25),#21,.T.);
#104=ADVANCED_FACE('',(#26,#15),#18,.T.);
#105=ADVANCED_FACE('',(#27),#22,.F.);
#106=ADVANCED_FACE('',(#28,#16),#19,.T.);
#107=ADVANCED_FACE('',(#29),#23,.T.);
#108=ADVANCED_FACE('',(#30,#17),#20,.T.);
#109=CLOSED_SHELL('',(#102,#103,#104,#105,#106,#107,#108));
#110=DERIVED_UNIT_ELEMENT(#113,1.);
#111=DERIVED_UNIT_ELEMENT(#216,-3.);
#112=DIMENSIONAL_EXPONENTS(0.,1.,0.,0.,0.,0.,0.);
#113=(
CONVERSION_BASED_UNIT('gram',#115)
MASS_UNIT()
NAMED_UNIT(#112)
);
#114=(
MASS_UNIT()
NAMED_UNIT(*)
SI_UNIT(.KILO.,.GRAM.)
);
#115=MASS_MEASURE_WITH_UNIT(MASS_MEASURE(0.001),#114);
#116=DERIVED_UNIT((#110,#111));
#117=MEASURE_REPRESENTATION_ITEM('density measure',
POSITIVE_RATIO_MEASURE(8.47),#116);
#118=PROPERTY_DEFINITION_REPRESENTATION(#123,#120);
#119=PROPERTY_DEFINITION_REPRESENTATION(#124,#121);
#120=REPRESENTATION('material name',(#122),#213);
#121=REPRESENTATION('density',(#117),#213);
#122=DESCRIPTIVE_REPRESENTATION_ITEM('Brass, Soft Yellow',
'Brass, Soft Yellow');
#123=PROPERTY_DEFINITION('material property','material name',#223);
#124=PROPERTY_DEFINITION('material property','density of part',#223);
#125=DATE_TIME_ROLE('creation_date');
#126=APPLIED_DATE_AND_TIME_ASSIGNMENT(#127,#125,(#223));
#127=DATE_AND_TIME(#128,#129);
#128=CALENDAR_DATE(2025,9,3);
#129=LOCAL_TIME(0,0,0.,#130);
#130=COORDINATED_UNIVERSAL_TIME_OFFSET(0,0,.BEHIND.);
#131=AXIS2_PLACEMENT_3D('',#183,#147,#148);
#132=AXIS2_PLACEMENT_3D('',#184,#149,#150);
#133=AXIS2_PLACEMENT_3D('',#186,#151,#152);
#134=AXIS2_PLACEMENT_3D('',#190,#154,#155);
#135=AXIS2_PLACEMENT_3D('',#191,#156,#157);
#136=AXIS2_PLACEMENT_3D('',#192,#158,#159);
#137=AXIS2_PLACEMENT_3D('',#195,#161,#162);
#138=AXIS2_PLACEMENT_3D('',#196,#163,#164);
#139=AXIS2_PLACEMENT_3D('',#198,#165,#166);
#140=AXIS2_PLACEMENT_3D('',#199,#167,#168);
#141=AXIS2_PLACEMENT_3D('',#202,#170,#171);
#142=AXIS2_PLACEMENT_3D('',#203,#172,#173);
#143=AXIS2_PLACEMENT_3D('',#205,#174,#175);
#144=AXIS2_PLACEMENT_3D('',#206,#176,#177);
#145=AXIS2_PLACEMENT_3D('',#208,#178,#179);
#146=AXIS2_PLACEMENT_3D('',#210,#181,#182);
#147=DIRECTION('axis',(0.,0.,1.));
#148=DIRECTION('refdir',(1.,0.,0.));
#149=DIRECTION('center_axis',(-1.,4.16333634234433E-17,0.));
#150=DIRECTION('ref_axis',(-2.0391851472707E-17,-1.,0.));
#151=DIRECTION('center_axis',(-1.,4.16333634234434E-17,0.));
#152=DIRECTION('ref_axis',(-4.16333634234434E-17,-1.,0.));
#153=DIRECTION('',(-0.707106781186549,0.707106781186546,8.65956056235491E-17));
#154=DIRECTION('center_axis',(1.,-4.16333634234434E-17,0.));
#155=DIRECTION('ref_axis',(0.,-1.,0.));
#156=DIRECTION('center_axis',(1.,-4.16333634234434E-17,0.));
#157=DIRECTION('ref_axis',(0.,-1.,0.));
#158=DIRECTION('center_axis',(1.,-4.16333634234434E-17,0.));
#159=DIRECTION('ref_axis',(0.,1.,0.));
#160=DIRECTION('',(-1.,4.16333634234434E-17,0.));
#161=DIRECTION('center_axis',(1.,-4.16333634234434E-17,0.));
#162=DIRECTION('ref_axis',(0.,0.,-1.));
#163=DIRECTION('center_axis',(1.,-4.16333634234434E-17,0.));
#164=DIRECTION('ref_axis',(0.,0.,-1.));
#165=DIRECTION('center_axis',(1.,-4.16333634234434E-17,0.));
#166=DIRECTION('ref_axis',(0.,0.,-1.));
#167=DIRECTION('center_axis',(1.,-4.16333634234434E-17,0.));
#168=DIRECTION('ref_axis',(0.,1.,0.));
#169=DIRECTION('',(-1.,4.16333634234434E-17,0.));
#170=DIRECTION('center_axis',(1.,-4.16333634234434E-17,0.));
#171=DIRECTION('ref_axis',(0.,0.,-1.));
#172=DIRECTION('center_axis',(-1.,4.16333634234434E-17,0.));
#173=DIRECTION('ref_axis',(0.,0.,1.));
#174=DIRECTION('center_axis',(1.,-4.16333634234434E-17,0.));
#175=DIRECTION('ref_axis',(0.,0.,-1.));
#176=DIRECTION('center_axis',(1.,-4.16333634234434E-17,0.));
#177=DIRECTION('ref_axis',(0.,1.,0.));
#178=DIRECTION('center_axis',(1.,-4.16333634234434E-17,0.));
#179=DIRECTION('ref_axis',(0.,0.,-1.));
#180=DIRECTION('',(-1.,4.16333634234434E-17,0.));
#181=DIRECTION('center_axis',(1.,-4.16333634234434E-17,0.));
#182=DIRECTION('ref_axis',(0.,0.,-1.));
#183=CARTESIAN_POINT('',(0.,0.,0.));
#184=CARTESIAN_POINT('Origin',(12.25,-5.10008701937181E-16,0.));
#185=CARTESIAN_POINT('',(12.5,12.,-1.46957615897682E-15));
#186=CARTESIAN_POINT('Origin',(12.5,-5.20417042793042E-16,0.));
#187=CARTESIAN_POINT('',(12.,12.5,1.53080849893419E-15));
#188=CARTESIAN_POINT('',(12.25,12.25,1.50019232895551E-15));
#189=CARTESIAN_POINT('',(12.,-12.5,-1.53080849893419E-15));
#190=CARTESIAN_POINT('Origin',(12.,-4.9960036108132E-16,0.));
#191=CARTESIAN_POINT('Origin',(12.,-4.9960036108132E-16,0.));
#192=CARTESIAN_POINT('Origin',(1.49999999999999,-6.24500451351649E-17,0.));
#193=CARTESIAN_POINT('',(-9.50000000000001,-12.5,-1.53080849893419E-15));
#194=CARTESIAN_POINT('',(1.49999999999999,-12.5,-1.53080849893419E-15));
#195=CARTESIAN_POINT('Origin',(-9.50000000000001,3.95516952522712E-16,0.));
#196=CARTESIAN_POINT('Origin',(12.5,10.,0.));
#197=CARTESIAN_POINT('',(12.5,-10.,-1.22464679914735E-15));
#198=CARTESIAN_POINT('Origin',(12.5,-5.20417042793042E-16,0.));
#199=CARTESIAN_POINT('Origin',(-4.44089209850063E-15,1.23259516440783E-31,
0.));
#200=CARTESIAN_POINT('',(-12.5,-10.,-1.22464679914735E-15));
#201=CARTESIAN_POINT('',(-4.44089209850063E-15,-10.,-1.22464679914735E-15));
#202=CARTESIAN_POINT('Origin',(-12.5,5.20417042793042E-16,0.));
#203=CARTESIAN_POINT('Origin',(-12.5,16.,0.));
#204=CARTESIAN_POINT('',(-12.5,-16.,-1.95943487863577E-15));
#205=CARTESIAN_POINT('Origin',(-12.5,5.20417042793042E-16,0.));
#206=CARTESIAN_POINT('Origin',(-11.,4.57966997657877E-16,0.));
#207=CARTESIAN_POINT('',(-9.50000000000001,-16.,-1.95943487863577E-15));
#208=CARTESIAN_POINT('Origin',(-9.50000000000001,3.95516952522712E-16,0.));
#209=CARTESIAN_POINT('',(-11.,-16.,-1.95943487863577E-15));
#210=CARTESIAN_POINT('Origin',(-9.50000000000001,12.5,0.));
#211=UNCERTAINTY_MEASURE_WITH_UNIT(LENGTH_MEASURE(0.01),#215,
'DISTANCE_ACCURACY_VALUE',
'Maximum model space distance between geometric entities at asserted c
onnectivities');
#212=UNCERTAINTY_MEASURE_WITH_UNIT(LENGTH_MEASURE(0.01),#215,
'DISTANCE_ACCURACY_VALUE',
'Maximum model space distance between geometric entities at asserted c
onnectivities');
#213=(
GEOMETRIC_REPRESENTATION_CONTEXT(3)
GLOBAL_UNCERTAINTY_ASSIGNED_CONTEXT((#211))
GLOBAL_UNIT_ASSIGNED_CONTEXT((#215,#217,#218))
REPRESENTATION_CONTEXT('','3D')
);
#214=(
GEOMETRIC_REPRESENTATION_CONTEXT(3)
GLOBAL_UNCERTAINTY_ASSIGNED_CONTEXT((#212))
GLOBAL_UNIT_ASSIGNED_CONTEXT((#215,#217,#218))
REPRESENTATION_CONTEXT('','3D')
);
#215=(
LENGTH_UNIT()
NAMED_UNIT(*)
SI_UNIT(.MILLI.,.METRE.)
);
#216=(
LENGTH_UNIT()
NAMED_UNIT(*)
SI_UNIT(.CENTI.,.METRE.)
);
#217=(
NAMED_UNIT(*)
PLANE_ANGLE_UNIT()
SI_UNIT($,.RADIAN.)
);
#218=(
NAMED_UNIT(*)
SI_UNIT($,.STERADIAN.)
SOLID_ANGLE_UNIT()
);
#219=SHAPE_DEFINITION_REPRESENTATION(#220,#221);
#220=PRODUCT_DEFINITION_SHAPE('',$,#223);
#221=SHAPE_REPRESENTATION('',(#131),#213);
#222=PRODUCT_DEFINITION_CONTEXT('part definition',#227,'design');
#223=PRODUCT_DEFINITION('03-bushing','03-bushing',#224,#222);
#224=PRODUCT_DEFINITION_FORMATION('',$,#229);
#225=PRODUCT_RELATED_PRODUCT_CATEGORY('03-bushing','03-bushing',(#229));
#226=APPLICATION_PROTOCOL_DEFINITION('international standard',
'automotive_design',2009,#227);
#227=APPLICATION_CONTEXT(
'Core Data for Automotive Mechanical Design Process');
#228=PRODUCT_CONTEXT('part definition',#227,'mechanical');
#229=PRODUCT('03-bushing','03-bushing',$,(#228));
#230=PRESENTATION_STYLE_ASSIGNMENT((#231));
#231=SURFACE_STYLE_USAGE(.BOTH.,#234);
#232=SURFACE_STYLE_RENDERING_WITH_PROPERTIES($,#238,(#233));
#233=SURFACE_STYLE_TRANSPARENT(0.);
#234=SURFACE_SIDE_STYLE('',(#235,#232));
#235=SURFACE_STYLE_FILL_AREA(#236);
#236=FILL_AREA_STYLE('',(#237));
#237=FILL_AREA_STYLE_COLOUR('',#238);
#238=COLOUR_RGB('',0.796078431372549,0.603921568627451,0.231372549019608);
ENDSEC;
END-ISO-10303-21;
