ISO-10303-21;
HEADER;
/* Generated by software containing ST-Developer
 * from STEP Tools, Inc. (www.steptools.com) 
 */

FILE_DESCRIPTION(
/* description */ (''),
/* implementation_level */ '2;1');

FILE_NAME(
/* name */ '04-roller.stp',
/* time_stamp */ '2025-03-09T21:10:24+03:00',
/* author */ ('DuctopwH'),
/* organization */ (''),
/* preprocessor_version */ 'ST-DEVELOPER v19.2',
/* originating_system */ 'Autodesk Inventor 2024',
/* authorisation */ '');

FILE_SCHEMA (('AUTOMOTIVE_DESIGN { 1 0 10303 214 3 1 1 }'));
ENDSEC;

DATA;
#10=MECHANICAL_DESIGN_GEOMETRIC_PRESENTATION_REPRESENTATION('',(#220,#221,
#222,#223,#224,#225,#226,#227,#228,#229,#230,#231,#232,#233,#234,#235,#236),
#474);
#11=SHAPE_REPRESENTATION_RELATIONSHIP('SRR','None',#481,#12);
#12=ADVANCED_BREP_SHAPE_REPRESENTATION('',(#13),#473);
#13=MANIFOLD_SOLID_BREP('Solid1',#253);
#14=CYLINDRICAL_SURFACE('',#308,50.);
#15=CYLINDRICAL_SURFACE('',#313,12.5);
#16=LINE('',#418,#22);
#17=LINE('',#428,#23);
#18=LINE('',#444,#24);
#19=LINE('',#454,#25);
#20=LINE('',#461,#26);
#21=LINE('',#468,#27);
#22=VECTOR('',#334,19.25);
#23=VECTOR('',#347,45.5);
#24=VECTOR('',#368,19.25);
#25=VECTOR('',#381,45.5);
#26=VECTOR('',#390,50.);
#27=VECTOR('',#399,12.5);
#28=CONICAL_SURFACE('',#283,19.25,0.264488382549232);
#29=CONICAL_SURFACE('',#289,45.5,0.165148677414627);
#30=CONICAL_SURFACE('',#298,19.25,0.264488382549233);
#31=CONICAL_SURFACE('',#304,45.5,0.165148677414627);
#32=FACE_BOUND('',#62,.T.);
#33=FACE_BOUND('',#68,.T.);
#34=FACE_BOUND('',#73,.T.);
#35=FACE_BOUND('',#76,.T.);
#36=FACE_BOUND('',#78,.T.);
#37=FACE_BOUND('',#81,.T.);
#38=PLANE('',#281);
#39=PLANE('',#296);
#40=PLANE('',#306);
#41=PLANE('',#310);
#42=PLANE('',#311);
#43=PLANE('',#315);
#44=FACE_OUTER_BOUND('',#60,.T.);
#45=FACE_OUTER_BOUND('',#61,.T.);
#46=FACE_OUTER_BOUND('',#63,.T.);
#47=FACE_OUTER_BOUND('',#64,.T.);
#48=FACE_OUTER_BOUND('',#65,.T.);
#49=FACE_OUTER_BOUND('',#66,.T.);
#50=FACE_OUTER_BOUND('',#67,.T.);
#51=FACE_OUTER_BOUND('',#69,.T.);
#52=FACE_OUTER_BOUND('',#70,.T.);
#53=FACE_OUTER_BOUND('',#71,.T.);
#54=FACE_OUTER_BOUND('',#72,.T.);
#55=FACE_OUTER_BOUND('',#74,.T.);
#56=FACE_OUTER_BOUND('',#75,.T.);
#57=FACE_OUTER_BOUND('',#77,.T.);
#58=FACE_OUTER_BOUND('',#79,.T.);
#59=FACE_OUTER_BOUND('',#80,.T.);
#60=EDGE_LOOP('',(#156,#157,#158,#159,#160));
#61=EDGE_LOOP('',(#161));
#62=EDGE_LOOP('',(#162));
#63=EDGE_LOOP('',(#163,#164,#165,#166,#167));
#64=EDGE_LOOP('',(#168,#169,#170,#171,#172));
#65=EDGE_LOOP('',(#173,#174,#175,#176,#177));
#66=EDGE_LOOP('',(#178,#179,#180,#181,#182));
#67=EDGE_LOOP('',(#183));
#68=EDGE_LOOP('',(#184));
#69=EDGE_LOOP('',(#185,#186,#187,#188,#189));
#70=EDGE_LOOP('',(#190,#191,#192,#193,#194));
#71=EDGE_LOOP('',(#195,#196,#197,#198,#199));
#72=EDGE_LOOP('',(#200));
#73=EDGE_LOOP('',(#201));
#74=EDGE_LOOP('',(#202,#203,#204,#205));
#75=EDGE_LOOP('',(#206));
#76=EDGE_LOOP('',(#207));
#77=EDGE_LOOP('',(#208));
#78=EDGE_LOOP('',(#209));
#79=EDGE_LOOP('',(#210,#211,#212,#213));
#80=EDGE_LOOP('',(#214));
#81=EDGE_LOOP('',(#215));
#82=CIRCLE('',#277,21.2998001480585);
#83=CIRCLE('',#278,6.);
#84=CIRCLE('',#279,27.0911583795782);
#85=CIRCLE('',#280,21.2998001480585);
#86=CIRCLE('',#282,38.4172374697018);
#87=CIRCLE('',#284,16.);
#88=CIRCLE('',#286,6.);
#89=CIRCLE('',#287,44.3356010126946);
#90=CIRCLE('',#288,44.3356010126946);
#91=CIRCLE('',#290,47.5);
#92=CIRCLE('',#292,27.0911583795782);
#93=CIRCLE('',#293,6.);
#94=CIRCLE('',#294,21.2998001480585);
#95=CIRCLE('',#295,21.2998001480585);
#96=CIRCLE('',#297,38.4172374697018);
#97=CIRCLE('',#299,16.);
#98=CIRCLE('',#301,44.3356010126947);
#99=CIRCLE('',#302,6.);
#100=CIRCLE('',#303,44.3356010126947);
#101=CIRCLE('',#305,47.5);
#102=CIRCLE('',#307,50.);
#103=CIRCLE('',#309,50.);
#104=CIRCLE('',#312,12.5);
#105=CIRCLE('',#314,12.5);
#106=VERTEX_POINT('',#406);
#107=VERTEX_POINT('',#407);
#108=VERTEX_POINT('',#409);
#109=VERTEX_POINT('',#414);
#110=VERTEX_POINT('',#417);
#111=VERTEX_POINT('',#421);
#112=VERTEX_POINT('',#423);
#113=VERTEX_POINT('',#427);
#114=VERTEX_POINT('',#431);
#115=VERTEX_POINT('',#433);
#116=VERTEX_POINT('',#435);
#117=VERTEX_POINT('',#439);
#118=VERTEX_POINT('',#442);
#119=VERTEX_POINT('',#446);
#120=VERTEX_POINT('',#447);
#121=VERTEX_POINT('',#452);
#122=VERTEX_POINT('',#456);
#123=VERTEX_POINT('',#459);
#124=VERTEX_POINT('',#464);
#125=VERTEX_POINT('',#467);
#126=EDGE_CURVE('',#106,#107,#82,.T.);
#127=EDGE_CURVE('',#107,#108,#83,.T.);
#128=EDGE_CURVE('',#108,#108,#84,.T.);
#129=EDGE_CURVE('',#107,#106,#85,.T.);
#130=EDGE_CURVE('',#109,#109,#86,.T.);
#131=EDGE_CURVE('',#106,#110,#16,.T.);
#132=EDGE_CURVE('',#110,#110,#87,.T.);
#133=EDGE_CURVE('',#109,#111,#88,.T.);
#134=EDGE_CURVE('',#111,#112,#89,.T.);
#135=EDGE_CURVE('',#112,#111,#90,.T.);
#136=EDGE_CURVE('',#112,#113,#17,.T.);
#137=EDGE_CURVE('',#113,#113,#91,.T.);
#138=EDGE_CURVE('',#114,#114,#92,.T.);
#139=EDGE_CURVE('',#114,#115,#93,.T.);
#140=EDGE_CURVE('',#115,#116,#94,.T.);
#141=EDGE_CURVE('',#116,#115,#95,.T.);
#142=EDGE_CURVE('',#117,#117,#96,.T.);
#143=EDGE_CURVE('',#118,#118,#97,.T.);
#144=EDGE_CURVE('',#118,#116,#18,.T.);
#145=EDGE_CURVE('',#119,#120,#98,.T.);
#146=EDGE_CURVE('',#120,#117,#99,.T.);
#147=EDGE_CURVE('',#120,#119,#100,.T.);
#148=EDGE_CURVE('',#121,#121,#101,.T.);
#149=EDGE_CURVE('',#121,#119,#19,.T.);
#150=EDGE_CURVE('',#122,#122,#102,.T.);
#151=EDGE_CURVE('',#123,#123,#103,.T.);
#152=EDGE_CURVE('',#123,#122,#20,.T.);
#153=EDGE_CURVE('',#124,#124,#104,.T.);
#154=EDGE_CURVE('',#124,#125,#21,.T.);
#155=EDGE_CURVE('',#125,#125,#105,.T.);
#156=ORIENTED_EDGE('',*,*,#126,.T.);
#157=ORIENTED_EDGE('',*,*,#127,.T.);
#158=ORIENTED_EDGE('',*,*,#128,.T.);
#159=ORIENTED_EDGE('',*,*,#127,.F.);
#160=ORIENTED_EDGE('',*,*,#129,.T.);
#161=ORIENTED_EDGE('',*,*,#130,.F.);
#162=ORIENTED_EDGE('',*,*,#128,.F.);
#163=ORIENTED_EDGE('',*,*,#126,.F.);
#164=ORIENTED_EDGE('',*,*,#131,.T.);
#165=ORIENTED_EDGE('',*,*,#132,.T.);
#166=ORIENTED_EDGE('',*,*,#131,.F.);
#167=ORIENTED_EDGE('',*,*,#129,.F.);
#168=ORIENTED_EDGE('',*,*,#130,.T.);
#169=ORIENTED_EDGE('',*,*,#133,.T.);
#170=ORIENTED_EDGE('',*,*,#134,.T.);
#171=ORIENTED_EDGE('',*,*,#135,.T.);
#172=ORIENTED_EDGE('',*,*,#133,.F.);
#173=ORIENTED_EDGE('',*,*,#134,.F.);
#174=ORIENTED_EDGE('',*,*,#135,.F.);
#175=ORIENTED_EDGE('',*,*,#136,.T.);
#176=ORIENTED_EDGE('',*,*,#137,.F.);
#177=ORIENTED_EDGE('',*,*,#136,.F.);
#178=ORIENTED_EDGE('',*,*,#138,.T.);
#179=ORIENTED_EDGE('',*,*,#139,.T.);
#180=ORIENTED_EDGE('',*,*,#140,.T.);
#181=ORIENTED_EDGE('',*,*,#141,.T.);
#182=ORIENTED_EDGE('',*,*,#139,.F.);
#183=ORIENTED_EDGE('',*,*,#142,.F.);
#184=ORIENTED_EDGE('',*,*,#138,.F.);
#185=ORIENTED_EDGE('',*,*,#143,.F.);
#186=ORIENTED_EDGE('',*,*,#144,.T.);
#187=ORIENTED_EDGE('',*,*,#140,.F.);
#188=ORIENTED_EDGE('',*,*,#141,.F.);
#189=ORIENTED_EDGE('',*,*,#144,.F.);
#190=ORIENTED_EDGE('',*,*,#145,.T.);
#191=ORIENTED_EDGE('',*,*,#146,.T.);
#192=ORIENTED_EDGE('',*,*,#142,.T.);
#193=ORIENTED_EDGE('',*,*,#146,.F.);
#194=ORIENTED_EDGE('',*,*,#147,.T.);
#195=ORIENTED_EDGE('',*,*,#148,.T.);
#196=ORIENTED_EDGE('',*,*,#149,.T.);
#197=ORIENTED_EDGE('',*,*,#147,.F.);
#198=ORIENTED_EDGE('',*,*,#145,.F.);
#199=ORIENTED_EDGE('',*,*,#149,.F.);
#200=ORIENTED_EDGE('',*,*,#150,.F.);
#201=ORIENTED_EDGE('',*,*,#137,.T.);
#202=ORIENTED_EDGE('',*,*,#151,.F.);
#203=ORIENTED_EDGE('',*,*,#152,.T.);
#204=ORIENTED_EDGE('',*,*,#150,.T.);
#205=ORIENTED_EDGE('',*,*,#152,.F.);
#206=ORIENTED_EDGE('',*,*,#151,.T.);
#207=ORIENTED_EDGE('',*,*,#148,.F.);
#208=ORIENTED_EDGE('',*,*,#143,.T.);
#209=ORIENTED_EDGE('',*,*,#153,.F.);
#210=ORIENTED_EDGE('',*,*,#153,.T.);
#211=ORIENTED_EDGE('',*,*,#154,.T.);
#212=ORIENTED_EDGE('',*,*,#155,.F.);
#213=ORIENTED_EDGE('',*,*,#154,.F.);
#214=ORIENTED_EDGE('',*,*,#132,.F.);
#215=ORIENTED_EDGE('',*,*,#155,.T.);
#216=TOROIDAL_SURFACE('',#276,27.0911583795782,6.);
#217=TOROIDAL_SURFACE('',#285,38.4172374697018,6.);
#218=TOROIDAL_SURFACE('',#291,27.0911583795782,6.);
#219=TOROIDAL_SURFACE('',#300,38.4172374697018,6.);
#220=STYLED_ITEM('',(#491),#237);
#221=STYLED_ITEM('',(#491),#238);
#222=STYLED_ITEM('',(#491),#239);
#223=STYLED_ITEM('',(#491),#240);
#224=STYLED_ITEM('',(#491),#241);
#225=STYLED_ITEM('',(#491),#242);
#226=STYLED_ITEM('',(#491),#243);
#227=STYLED_ITEM('',(#491),#244);
#228=STYLED_ITEM('',(#491),#245);
#229=STYLED_ITEM('',(#491),#246);
#230=STYLED_ITEM('',(#491),#247);
#231=STYLED_ITEM('',(#491),#248);
#232=STYLED_ITEM('',(#491),#249);
#233=STYLED_ITEM('',(#491),#250);
#234=STYLED_ITEM('',(#491),#251);
#235=STYLED_ITEM('',(#491),#252);
#236=STYLED_ITEM('',(#490),#13);
#237=ADVANCED_FACE('',(#44),#216,.F.);
#238=ADVANCED_FACE('',(#45,#32),#38,.T.);
#239=ADVANCED_FACE('',(#46),#28,.T.);
#240=ADVANCED_FACE('',(#47),#217,.F.);
#241=ADVANCED_FACE('',(#48),#29,.F.);
#242=ADVANCED_FACE('',(#49),#218,.F.);
#243=ADVANCED_FACE('',(#50,#33),#39,.T.);
#244=ADVANCED_FACE('',(#51),#30,.T.);
#245=ADVANCED_FACE('',(#52),#219,.F.);
#246=ADVANCED_FACE('',(#53),#31,.F.);
#247=ADVANCED_FACE('',(#54,#34),#40,.T.);
#248=ADVANCED_FACE('',(#55),#14,.T.);
#249=ADVANCED_FACE('',(#56,#35),#41,.T.);
#250=ADVANCED_FACE('',(#57,#36),#42,.T.);
#251=ADVANCED_FACE('',(#58),#15,.F.);
#252=ADVANCED_FACE('',(#59,#37),#43,.T.);
#253=CLOSED_SHELL('',(#237,#238,#239,#240,#241,#242,#243,#244,#245,#246,
#247,#248,#249,#250,#251,#252));
#254=DERIVED_UNIT_ELEMENT(#257,1.);
#255=DERIVED_UNIT_ELEMENT(#476,-3.);
#256=DIMENSIONAL_EXPONENTS(0.,1.,0.,0.,0.,0.,0.);
#257=(
CONVERSION_BASED_UNIT('gram',#259)
MASS_UNIT()
NAMED_UNIT(#256)
);
#258=(
MASS_UNIT()
NAMED_UNIT(*)
SI_UNIT(.KILO.,.GRAM.)
);
#259=MASS_MEASURE_WITH_UNIT(MASS_MEASURE(0.001),#258);
#260=DERIVED_UNIT((#254,#255));
#261=MEASURE_REPRESENTATION_ITEM('density measure',
POSITIVE_RATIO_MEASURE(8.),#260);
#262=PROPERTY_DEFINITION_REPRESENTATION(#267,#264);
#263=PROPERTY_DEFINITION_REPRESENTATION(#268,#265);
#264=REPRESENTATION('material name',(#266),#473);
#265=REPRESENTATION('density',(#261),#473);
#266=DESCRIPTIVE_REPRESENTATION_ITEM('Stainless Steel',
'Stainless Steel');
#267=PROPERTY_DEFINITION('material property','material name',#483);
#268=PROPERTY_DEFINITION('material property','density of part',#483);
#269=DATE_TIME_ROLE('creation_date');
#270=APPLIED_DATE_AND_TIME_ASSIGNMENT(#271,#269,(#483));
#271=DATE_AND_TIME(#272,#273);
#272=CALENDAR_DATE(2025,9,3);
#273=LOCAL_TIME(0,0,0.,#274);
#274=COORDINATED_UNIVERSAL_TIME_OFFSET(0,0,.BEHIND.);
#275=AXIS2_PLACEMENT_3D('',#404,#316,#317);
#276=AXIS2_PLACEMENT_3D('',#405,#318,#319);
#277=AXIS2_PLACEMENT_3D('',#408,#320,#321);
#278=AXIS2_PLACEMENT_3D('',#410,#322,#323);
#279=AXIS2_PLACEMENT_3D('',#411,#324,#325);
#280=AXIS2_PLACEMENT_3D('',#412,#326,#327);
#281=AXIS2_PLACEMENT_3D('',#413,#328,#329);
#282=AXIS2_PLACEMENT_3D('',#415,#330,#331);
#283=AXIS2_PLACEMENT_3D('',#416,#332,#333);
#284=AXIS2_PLACEMENT_3D('',#419,#335,#336);
#285=AXIS2_PLACEMENT_3D('',#420,#337,#338);
#286=AXIS2_PLACEMENT_3D('',#422,#339,#340);
#287=AXIS2_PLACEMENT_3D('',#424,#341,#342);
#288=AXIS2_PLACEMENT_3D('',#425,#343,#344);
#289=AXIS2_PLACEMENT_3D('',#426,#345,#346);
#290=AXIS2_PLACEMENT_3D('',#429,#348,#349);
#291=AXIS2_PLACEMENT_3D('',#430,#350,#351);
#292=AXIS2_PLACEMENT_3D('',#432,#352,#353);
#293=AXIS2_PLACEMENT_3D('',#434,#354,#355);
#294=AXIS2_PLACEMENT_3D('',#436,#356,#357);
#295=AXIS2_PLACEMENT_3D('',#437,#358,#359);
#296=AXIS2_PLACEMENT_3D('',#438,#360,#361);
#297=AXIS2_PLACEMENT_3D('',#440,#362,#363);
#298=AXIS2_PLACEMENT_3D('',#441,#364,#365);
#299=AXIS2_PLACEMENT_3D('',#443,#366,#367);
#300=AXIS2_PLACEMENT_3D('',#445,#369,#370);
#301=AXIS2_PLACEMENT_3D('',#448,#371,#372);
#302=AXIS2_PLACEMENT_3D('',#449,#373,#374);
#303=AXIS2_PLACEMENT_3D('',#450,#375,#376);
#304=AXIS2_PLACEMENT_3D('',#451,#377,#378);
#305=AXIS2_PLACEMENT_3D('',#453,#379,#380);
#306=AXIS2_PLACEMENT_3D('',#455,#382,#383);
#307=AXIS2_PLACEMENT_3D('',#457,#384,#385);
#308=AXIS2_PLACEMENT_3D('',#458,#386,#387);
#309=AXIS2_PLACEMENT_3D('',#460,#388,#389);
#310=AXIS2_PLACEMENT_3D('',#462,#391,#392);
#311=AXIS2_PLACEMENT_3D('',#463,#393,#394);
#312=AXIS2_PLACEMENT_3D('',#465,#395,#396);
#313=AXIS2_PLACEMENT_3D('',#466,#397,#398);
#314=AXIS2_PLACEMENT_3D('',#469,#400,#401);
#315=AXIS2_PLACEMENT_3D('',#470,#402,#403);
#316=DIRECTION('axis',(0.,0.,1.));
#317=DIRECTION('refdir',(1.,0.,0.));
#318=DIRECTION('center_axis',(1.,0.,0.));
#319=DIRECTION('ref_axis',(0.,0.,-1.));
#320=DIRECTION('center_axis',(1.,0.,0.));
#321=DIRECTION('ref_axis',(0.,-1.,3.06161699786839E-17));
#322=DIRECTION('center_axis',(0.,-1.,-1.22464679914735E-16));
#323=DIRECTION('ref_axis',(0.,-1.22464679914735E-16,1.));
#324=DIRECTION('center_axis',(-1.,0.,0.));
#325=DIRECTION('ref_axis',(0.,-1.,1.83697019872103E-16));
#326=DIRECTION('center_axis',(1.,0.,0.));
#327=DIRECTION('ref_axis',(0.,-1.,3.06161699786839E-17));
#328=DIRECTION('center_axis',(-1.,0.,0.));
#329=DIRECTION('ref_axis',(0.,0.,1.));
#330=DIRECTION('center_axis',(1.,0.,0.));
#331=DIRECTION('ref_axis',(0.,-1.,1.83697019872103E-16));
#332=DIRECTION('center_axis',(1.,0.,0.));
#333=DIRECTION('ref_axis',(0.,1.,0.));
#334=DIRECTION('',(-0.965226371919944,0.261415475728318,3.20141625598267E-17));
#335=DIRECTION('center_axis',(1.,0.,0.));
#336=DIRECTION('ref_axis',(0.,0.,-1.));
#337=DIRECTION('center_axis',(1.,0.,0.));
#338=DIRECTION('ref_axis',(0.,0.,-1.));
#339=DIRECTION('center_axis',(0.,-1.,-1.22464679914735E-16));
#340=DIRECTION('ref_axis',(0.,-1.22464679914735E-16,1.));
#341=DIRECTION('center_axis',(-1.,0.,0.));
#342=DIRECTION('ref_axis',(0.,-1.,3.06161699786838E-17));
#343=DIRECTION('center_axis',(-1.,0.,0.));
#344=DIRECTION('ref_axis',(0.,-1.,3.06161699786838E-17));
#345=DIRECTION('center_axis',(-1.,0.,0.));
#346=DIRECTION('ref_axis',(0.,1.,0.));
#347=DIRECTION('',(-0.986393923832144,-0.164398987305357,-2.01330693586572E-17));
#348=DIRECTION('center_axis',(1.,0.,0.));
#349=DIRECTION('ref_axis',(0.,0.,-1.));
#350=DIRECTION('center_axis',(1.,0.,0.));
#351=DIRECTION('ref_axis',(0.,0.,-1.));
#352=DIRECTION('center_axis',(1.,0.,0.));
#353=DIRECTION('ref_axis',(0.,-1.,1.83697019872103E-16));
#354=DIRECTION('center_axis',(0.,-1.,-1.22464679914735E-16));
#355=DIRECTION('ref_axis',(0.,-1.22464679914735E-16,1.));
#356=DIRECTION('center_axis',(-1.,0.,0.));
#357=DIRECTION('ref_axis',(0.,-1.,3.06161699786838E-17));
#358=DIRECTION('center_axis',(-1.,0.,0.));
#359=DIRECTION('ref_axis',(0.,-1.,3.06161699786838E-17));
#360=DIRECTION('center_axis',(1.,0.,0.));
#361=DIRECTION('ref_axis',(0.,0.,-1.));
#362=DIRECTION('center_axis',(-1.,0.,0.));
#363=DIRECTION('ref_axis',(0.,-1.,1.83697019872103E-16));
#364=DIRECTION('center_axis',(-1.,0.,0.));
#365=DIRECTION('ref_axis',(0.,1.,0.));
#366=DIRECTION('center_axis',(1.,0.,0.));
#367=DIRECTION('ref_axis',(0.,0.,-1.));
#368=DIRECTION('',(-0.965226371919944,-0.261415475728318,-3.20141625598268E-17));
#369=DIRECTION('center_axis',(1.,0.,0.));
#370=DIRECTION('ref_axis',(0.,0.,-1.));
#371=DIRECTION('center_axis',(1.,0.,0.));
#372=DIRECTION('ref_axis',(0.,-1.,3.06161699786838E-17));
#373=DIRECTION('center_axis',(0.,-1.,-1.22464679914735E-16));
#374=DIRECTION('ref_axis',(0.,-1.22464679914735E-16,1.));
#375=DIRECTION('center_axis',(1.,0.,0.));
#376=DIRECTION('ref_axis',(0.,-1.,3.06161699786838E-17));
#377=DIRECTION('center_axis',(1.,0.,0.));
#378=DIRECTION('ref_axis',(0.,1.,0.));
#379=DIRECTION('center_axis',(1.,0.,0.));
#380=DIRECTION('ref_axis',(0.,0.,-1.));
#381=DIRECTION('',(-0.986393923832144,0.164398987305357,2.01330693586572E-17));
#382=DIRECTION('center_axis',(-1.,0.,0.));
#383=DIRECTION('ref_axis',(0.,0.,1.));
#384=DIRECTION('center_axis',(1.,0.,0.));
#385=DIRECTION('ref_axis',(0.,0.,-1.));
#386=DIRECTION('center_axis',(1.,0.,0.));
#387=DIRECTION('ref_axis',(0.,1.,0.));
#388=DIRECTION('center_axis',(1.,0.,0.));
#389=DIRECTION('ref_axis',(0.,0.,-1.));
#390=DIRECTION('',(-1.,0.,0.));
#391=DIRECTION('center_axis',(1.,0.,0.));
#392=DIRECTION('ref_axis',(0.,0.,-1.));
#393=DIRECTION('center_axis',(1.,0.,0.));
#394=DIRECTION('ref_axis',(0.,0.,-1.));
#395=DIRECTION('center_axis',(1.,0.,0.));
#396=DIRECTION('ref_axis',(0.,0.,-1.));
#397=DIRECTION('center_axis',(1.,0.,0.));
#398=DIRECTION('ref_axis',(0.,1.,0.));
#399=DIRECTION('',(-1.,0.,0.));
#400=DIRECTION('center_axis',(1.,0.,0.));
#401=DIRECTION('ref_axis',(0.,0.,-1.));
#402=DIRECTION('center_axis',(-1.,0.,0.));
#403=DIRECTION('ref_axis',(0.,0.,1.));
#404=CARTESIAN_POINT('',(0.,0.,0.));
#405=CARTESIAN_POINT('Origin',(-11.,0.,0.));
#406=CARTESIAN_POINT('',(-9.4315071456301,-21.2998001480585,-2.60847320737982E-15));
#407=CARTESIAN_POINT('',(-9.4315071456301,-2.60847320737982E-15,21.2998001480585));
#408=CARTESIAN_POINT('Origin',(-9.4315071456301,0.,-3.26059150922477E-15));
#409=CARTESIAN_POINT('',(-5.,-3.31771003947444E-15,27.0911583795782));
#410=CARTESIAN_POINT('Origin',(-11.,-3.31771003947444E-15,27.0911583795782));
#411=CARTESIAN_POINT('Origin',(-5.,0.,0.));
#412=CARTESIAN_POINT('Origin',(-9.4315071456301,0.,-3.26059150922477E-15));
#413=CARTESIAN_POINT('Origin',(-5.,43.5,0.));
#414=CARTESIAN_POINT('',(-5.,-4.70475468993541E-15,38.4172374697018));
#415=CARTESIAN_POINT('Origin',(-5.,0.,0.));
#416=CARTESIAN_POINT('Origin',(-17.,0.,0.));
#417=CARTESIAN_POINT('',(-29.,-16.,-1.95943487863577E-15));
#418=CARTESIAN_POINT('',(-17.,-19.25,-2.35744508835865E-15));
#419=CARTESIAN_POINT('Origin',(-29.,0.,0.));
#420=CARTESIAN_POINT('Origin',(-11.,0.,0.));
#421=CARTESIAN_POINT('',(-10.0136060761679,-5.42954518684706E-15,44.3356010126946));
#422=CARTESIAN_POINT('Origin',(-11.,-4.70475468993541E-15,38.4172374697018));
#423=CARTESIAN_POINT('',(-10.0136060761679,-44.3356010126946,-5.42954518684707E-15));
#424=CARTESIAN_POINT('Origin',(-10.0136060761679,0.,-6.78693148355883E-15));
#425=CARTESIAN_POINT('Origin',(-10.0136060761679,0.,-6.78693148355883E-15));
#426=CARTESIAN_POINT('Origin',(-17.,0.,0.));
#427=CARTESIAN_POINT('',(-29.,-47.5,-5.81707229594993E-15));
#428=CARTESIAN_POINT('',(-17.,-45.5,-5.57214293612046E-15));
#429=CARTESIAN_POINT('Origin',(-29.,0.,0.));
#430=CARTESIAN_POINT('Origin',(11.,0.,0.));
#431=CARTESIAN_POINT('',(5.,-3.31771003947444E-15,27.0911583795782));
#432=CARTESIAN_POINT('Origin',(5.,0.,0.));
#433=CARTESIAN_POINT('',(9.4315071456301,-2.60847320737982E-15,21.2998001480585));
#434=CARTESIAN_POINT('Origin',(11.,-3.31771003947444E-15,27.0911583795782));
#435=CARTESIAN_POINT('',(9.4315071456301,-21.2998001480585,-2.60847320737982E-15));
#436=CARTESIAN_POINT('Origin',(9.4315071456301,0.,-3.26059150922477E-15));
#437=CARTESIAN_POINT('Origin',(9.4315071456301,0.,-3.26059150922477E-15));
#438=CARTESIAN_POINT('Origin',(5.,22.5,0.));
#439=CARTESIAN_POINT('',(5.,-4.70475468993541E-15,38.4172374697018));
#440=CARTESIAN_POINT('Origin',(5.,0.,0.));
#441=CARTESIAN_POINT('Origin',(17.,0.,0.));
#442=CARTESIAN_POINT('',(29.,-16.,-1.95943487863577E-15));
#443=CARTESIAN_POINT('Origin',(29.,0.,0.));
#444=CARTESIAN_POINT('',(17.,-19.25,-2.35744508835866E-15));
#445=CARTESIAN_POINT('Origin',(11.,0.,0.));
#446=CARTESIAN_POINT('',(10.0136060761679,-44.3356010126946,-5.42954518684707E-15));
#447=CARTESIAN_POINT('',(10.0136060761679,-5.42954518684707E-15,44.3356010126946));
#448=CARTESIAN_POINT('Origin',(10.0136060761679,0.,-6.78693148355883E-15));
#449=CARTESIAN_POINT('Origin',(11.,-4.70475468993541E-15,38.4172374697018));
#450=CARTESIAN_POINT('Origin',(10.0136060761679,0.,-6.78693148355883E-15));
#451=CARTESIAN_POINT('Origin',(17.,0.,0.));
#452=CARTESIAN_POINT('',(29.,-47.5,-5.81707229594993E-15));
#453=CARTESIAN_POINT('Origin',(29.,0.,0.));
#454=CARTESIAN_POINT('',(17.,-45.5,-5.57214293612046E-15));
#455=CARTESIAN_POINT('Origin',(-29.,50.,0.));
#456=CARTESIAN_POINT('',(-29.,-50.,-6.12323399573677E-15));
#457=CARTESIAN_POINT('Origin',(-29.,0.,0.));
#458=CARTESIAN_POINT('Origin',(0.,0.,0.));
#459=CARTESIAN_POINT('',(29.,-50.,-6.12323399573677E-15));
#460=CARTESIAN_POINT('Origin',(29.,0.,0.));
#461=CARTESIAN_POINT('',(0.,-50.,-6.12323399573677E-15));
#462=CARTESIAN_POINT('Origin',(29.,47.5,0.));
#463=CARTESIAN_POINT('Origin',(29.,12.5,0.));
#464=CARTESIAN_POINT('',(29.,-12.5,-1.53080849893419E-15));
#465=CARTESIAN_POINT('Origin',(29.,0.,0.));
#466=CARTESIAN_POINT('Origin',(0.,0.,0.));
#467=CARTESIAN_POINT('',(-29.,-12.5,-1.53080849893419E-15));
#468=CARTESIAN_POINT('',(0.,-12.5,-1.53080849893419E-15));
#469=CARTESIAN_POINT('Origin',(-29.,0.,0.));
#470=CARTESIAN_POINT('Origin',(-29.,16.,0.));
#471=UNCERTAINTY_MEASURE_WITH_UNIT(LENGTH_MEASURE(0.01),#475,
'DISTANCE_ACCURACY_VALUE',
'Maximum model space distance between geometric entities at asserted c
onnectivities');
#472=UNCERTAINTY_MEASURE_WITH_UNIT(LENGTH_MEASURE(0.01),#475,
'DISTANCE_ACCURACY_VALUE',
'Maximum model space distance between geometric entities at asserted c
onnectivities');
#473=(
GEOMETRIC_REPRESENTATION_CONTEXT(3)
GLOBAL_UNCERTAINTY_ASSIGNED_CONTEXT((#471))
GLOBAL_UNIT_ASSIGNED_CONTEXT((#475,#477,#478))
REPRESENTATION_CONTEXT('','3D')
);
#474=(
GEOMETRIC_REPRESENTATION_CONTEXT(3)
GLOBAL_UNCERTAINTY_ASSIGNED_CONTEXT((#472))
GLOBAL_UNIT_ASSIGNED_CONTEXT((#475,#477,#478))
REPRESENTATION_CONTEXT('','3D')
);
#475=(
LENGTH_UNIT()
NAMED_UNIT(*)
SI_UNIT(.MILLI.,.METRE.)
);
#476=(
LENGTH_UNIT()
NAMED_UNIT(*)
SI_UNIT(.CENTI.,.METRE.)
);
#477=(
NAMED_UNIT(*)
PLANE_ANGLE_UNIT()
SI_UNIT($,.RADIAN.)
);
#478=(
NAMED_UNIT(*)
SI_UNIT($,.STERADIAN.)
SOLID_ANGLE_UNIT()
);
#479=SHAPE_DEFINITION_REPRESENTATION(#480,#481);
#480=PRODUCT_DEFINITION_SHAPE('',$,#483);
#481=SHAPE_REPRESENTATION('',(#275),#473);
#482=PRODUCT_DEFINITION_CONTEXT('part definition',#487,'design');
#483=PRODUCT_DEFINITION('04-roller','04-roller',#484,#482);
#484=PRODUCT_DEFINITION_FORMATION('',$,#489);
#485=PRODUCT_RELATED_PRODUCT_CATEGORY('04-roller','04-roller',(#489));
#486=APPLICATION_PROTOCOL_DEFINITION('international standard',
'automotive_design',2009,#487);
#487=APPLICATION_CONTEXT(
'Core Data for Automotive Mechanical Design Process');
#488=PRODUCT_CONTEXT('part definition',#487,'mechanical');
#489=PRODUCT('04-roller','04-roller',$,(#488));
#490=PRESENTATION_STYLE_ASSIGNMENT((#492));
#491=PRESENTATION_STYLE_ASSIGNMENT((#493));
#492=SURFACE_STYLE_USAGE(.BOTH.,#498);
#493=SURFACE_STYLE_USAGE(.BOTH.,#499);
#494=SURFACE_STYLE_RENDERING_WITH_PROPERTIES($,#506,(#496));
#495=SURFACE_STYLE_RENDERING_WITH_PROPERTIES($,#507,(#497));
#496=SURFACE_STYLE_TRANSPARENT(0.);
#497=SURFACE_STYLE_TRANSPARENT(0.);
#498=SURFACE_SIDE_STYLE('',(#500,#494));
#499=SURFACE_SIDE_STYLE('',(#501,#495));
#500=SURFACE_STYLE_FILL_AREA(#502);
#501=SURFACE_STYLE_FILL_AREA(#503);
#502=FILL_AREA_STYLE('',(#504));
#503=FILL_AREA_STYLE('',(#505));
#504=FILL_AREA_STYLE_COLOUR('',#506);
#505=FILL_AREA_STYLE_COLOUR('',#507);
#506=COLOUR_RGB('',0.745098039215686,0.737254901960784,0.729411764705882);
#507=COLOUR_RGB('',0.815686274509804,0.215686274509804,0.215686274509804);
ENDSEC;
END-ISO-10303-21;
