ISO-10303-21;
HEADER;
/* Generated by software containing ST-Developer
 * from STEP Tools, Inc. (www.steptools.com) 
 */

FILE_DESCRIPTION(
/* description */ (''),
/* implementation_level */ '2;1');

FILE_NAME(
/* name */ '05-spindel.stp',
/* time_stamp */ '2025-03-09T21:16:24+03:00',
/* author */ ('DuctopwH'),
/* organization */ (''),
/* preprocessor_version */ 'ST-DEVELOPER v19.2',
/* originating_system */ 'Autodesk Inventor 2024',
/* authorisation */ '');

FILE_SCHEMA (('AUTOMOTIVE_DESIGN { 1 0 10303 214 3 1 1 }'));
ENDSEC;

DATA;
#10=MECHANICAL_DESIGN_GEOMETRIC_PRESENTATION_REPRESENTATION('',(#18,#19,
#20,#21),#400);
#11=SHAPE_REPRESENTATION_RELATIONSHIP('SRR','None',#407,#12);
#12=ADVANCED_BREP_SHAPE_REPRESENTATION('',(#13),#399);
#13=MANIFOLD_SOLID_BREP('Solid1',#197);
#14=ELLIPSE('',#238,3.60624458405139,2.55);
#15=ELLIPSE('',#239,3.60624458405139,2.55);
#16=B_SPLINE_CURVE_WITH_KNOTS('',3,(#345,#346,#347,#348,#349,#350,#351,
#352,#353,#354,#355,#356,#357,#358,#359,#360,#361,#362),.UNSPECIFIED.,.F.,
 .F.,(4,2,2,2,2,2,2,2,4),(0.386064072456274,0.482572768433229,0.579081464410185,
0.675604804661366,0.772128144912547,0.868651485163728,0.96517482541491,
1.06168352139187,1.15819221736882),.UNSPECIFIED.);
#17=B_SPLINE_CURVE_WITH_KNOTS('',3,(#363,#364,#365,#366,#367,#368,#369,
#370,#371,#372,#373,#374,#375,#376,#377,#378,#379,#380,#381),
 .UNSPECIFIED.,.F.,.F.,(4,2,2,2,3,2,2,2,4),(1.15819221736882,1.25470091334578,
1.35120960932273,1.44773294957391,1.54425628982509,1.64077963007628,1.73730297032746,
1.83381166630441,1.93032036228137),.UNSPECIFIED.);
#18=STYLED_ITEM('',(#417),#191);
#19=STYLED_ITEM('',(#417),#192);
#20=STYLED_ITEM('',(#417),#193);
#21=STYLED_ITEM('',(#416),#13);
#22=FACE_BOUND('',#53,.T.);
#23=FACE_BOUND('',#57,.T.);
#24=FACE_BOUND('',#60,.T.);
#25=FACE_BOUND('',#62,.T.);
#26=FACE_BOUND('',#64,.T.);
#27=PLANE('',#226);
#28=PLANE('',#231);
#29=PLANE('',#241);
#30=PLANE('',#245);
#31=CYLINDRICAL_SURFACE('',#224,6.00000000000003);
#32=CYLINDRICAL_SURFACE('',#233,6.);
#33=CYLINDRICAL_SURFACE('',#237,2.55);
#34=CYLINDRICAL_SURFACE('',#240,2.55);
#35=CYLINDRICAL_SURFACE('',#243,10.);
#36=FACE_OUTER_BOUND('',#48,.T.);
#37=FACE_OUTER_BOUND('',#49,.T.);
#38=FACE_OUTER_BOUND('',#50,.T.);
#39=FACE_OUTER_BOUND('',#51,.T.);
#40=FACE_OUTER_BOUND('',#52,.T.);
#41=FACE_OUTER_BOUND('',#54,.T.);
#42=FACE_OUTER_BOUND('',#55,.T.);
#43=FACE_OUTER_BOUND('',#56,.T.);
#44=FACE_OUTER_BOUND('',#58,.T.);
#45=FACE_OUTER_BOUND('',#59,.T.);
#46=FACE_OUTER_BOUND('',#61,.T.);
#47=FACE_OUTER_BOUND('',#63,.T.);
#48=EDGE_LOOP('',(#134,#135,#136,#137,#138));
#49=EDGE_LOOP('',(#139,#140,#141,#142,#143));
#50=EDGE_LOOP('',(#144));
#51=EDGE_LOOP('',(#145,#146,#147,#148,#149));
#52=EDGE_LOOP('',(#150));
#53=EDGE_LOOP('',(#151));
#54=EDGE_LOOP('',(#152,#153,#154,#155,#156));
#55=EDGE_LOOP('',(#157,#158,#159));
#56=EDGE_LOOP('',(#160,#161,#162,#163,#164));
#57=EDGE_LOOP('',(#165,#166));
#58=EDGE_LOOP('',(#167,#168,#169,#170,#171));
#59=EDGE_LOOP('',(#172));
#60=EDGE_LOOP('',(#173));
#61=EDGE_LOOP('',(#174,#175,#176,#177));
#62=EDGE_LOOP('',(#178,#179));
#63=EDGE_LOOP('',(#180));
#64=EDGE_LOOP('',(#181));
#65=LINE('',#313,#73);
#66=LINE('',#319,#74);
#67=LINE('',#328,#75);
#68=LINE('',#336,#76);
#69=LINE('',#341,#77);
#70=LINE('',#382,#78);
#71=LINE('',#388,#79);
#72=LINE('',#395,#80);
#73=VECTOR('',#252,5.00000000000003);
#74=VECTOR('',#259,6.00000000000003);
#75=VECTOR('',#270,5.);
#76=VECTOR('',#281,6.);
#77=VECTOR('',#286,1.275);
#78=VECTOR('',#289,2.55);
#79=VECTOR('',#296,2.55);
#80=VECTOR('',#305,10.);
#81=CIRCLE('',#221,4.00000000000002);
#82=CIRCLE('',#222,6.00000000000003);
#83=CIRCLE('',#223,6.00000000000003);
#84=CIRCLE('',#225,6.00000000000004);
#85=CIRCLE('',#228,6.);
#86=CIRCLE('',#229,6.);
#87=CIRCLE('',#230,4.);
#88=CIRCLE('',#232,2.55);
#89=CIRCLE('',#234,6.);
#90=CIRCLE('',#236,2.55);
#91=CIRCLE('',#242,9.99999999999999);
#92=CIRCLE('',#244,10.);
#93=VERTEX_POINT('',#310);
#94=VERTEX_POINT('',#312);
#95=VERTEX_POINT('',#314);
#96=VERTEX_POINT('',#318);
#97=VERTEX_POINT('',#323);
#98=VERTEX_POINT('',#324);
#99=VERTEX_POINT('',#327);
#100=VERTEX_POINT('',#331);
#101=VERTEX_POINT('',#334);
#102=VERTEX_POINT('',#338);
#103=VERTEX_POINT('',#340);
#104=VERTEX_POINT('',#343);
#105=VERTEX_POINT('',#344);
#106=VERTEX_POINT('',#383);
#107=VERTEX_POINT('',#384);
#108=VERTEX_POINT('',#390);
#109=VERTEX_POINT('',#393);
#110=EDGE_CURVE('',#93,#93,#81,.T.);
#111=EDGE_CURVE('',#93,#94,#65,.T.);
#112=EDGE_CURVE('',#94,#95,#82,.T.);
#113=EDGE_CURVE('',#95,#94,#83,.T.);
#114=EDGE_CURVE('',#95,#96,#66,.T.);
#115=EDGE_CURVE('',#96,#96,#84,.T.);
#116=EDGE_CURVE('',#97,#98,#85,.T.);
#117=EDGE_CURVE('',#98,#97,#86,.T.);
#118=EDGE_CURVE('',#97,#99,#67,.T.);
#119=EDGE_CURVE('',#99,#99,#87,.T.);
#120=EDGE_CURVE('',#100,#100,#88,.T.);
#121=EDGE_CURVE('',#101,#101,#89,.T.);
#122=EDGE_CURVE('',#101,#98,#68,.T.);
#123=EDGE_CURVE('',#102,#102,#90,.T.);
#124=EDGE_CURVE('',#102,#103,#69,.T.);
#125=EDGE_CURVE('',#104,#105,#16,.T.);
#126=EDGE_CURVE('',#105,#104,#17,.T.);
#127=EDGE_CURVE('',#105,#102,#70,.T.);
#128=EDGE_CURVE('',#106,#107,#14,.T.);
#129=EDGE_CURVE('',#107,#106,#15,.T.);
#130=EDGE_CURVE('',#100,#106,#71,.T.);
#131=EDGE_CURVE('',#108,#108,#91,.T.);
#132=EDGE_CURVE('',#109,#109,#92,.T.);
#133=EDGE_CURVE('',#109,#108,#72,.T.);
#134=ORIENTED_EDGE('',*,*,#110,.T.);
#135=ORIENTED_EDGE('',*,*,#111,.T.);
#136=ORIENTED_EDGE('',*,*,#112,.T.);
#137=ORIENTED_EDGE('',*,*,#113,.T.);
#138=ORIENTED_EDGE('',*,*,#111,.F.);
#139=ORIENTED_EDGE('',*,*,#112,.F.);
#140=ORIENTED_EDGE('',*,*,#113,.F.);
#141=ORIENTED_EDGE('',*,*,#114,.T.);
#142=ORIENTED_EDGE('',*,*,#115,.T.);
#143=ORIENTED_EDGE('',*,*,#114,.F.);
#144=ORIENTED_EDGE('',*,*,#110,.F.);
#145=ORIENTED_EDGE('',*,*,#116,.T.);
#146=ORIENTED_EDGE('',*,*,#117,.T.);
#147=ORIENTED_EDGE('',*,*,#118,.T.);
#148=ORIENTED_EDGE('',*,*,#119,.T.);
#149=ORIENTED_EDGE('',*,*,#118,.F.);
#150=ORIENTED_EDGE('',*,*,#119,.F.);
#151=ORIENTED_EDGE('',*,*,#120,.T.);
#152=ORIENTED_EDGE('',*,*,#121,.F.);
#153=ORIENTED_EDGE('',*,*,#122,.T.);
#154=ORIENTED_EDGE('',*,*,#116,.F.);
#155=ORIENTED_EDGE('',*,*,#117,.F.);
#156=ORIENTED_EDGE('',*,*,#122,.F.);
#157=ORIENTED_EDGE('',*,*,#123,.T.);
#158=ORIENTED_EDGE('',*,*,#124,.T.);
#159=ORIENTED_EDGE('',*,*,#124,.F.);
#160=ORIENTED_EDGE('',*,*,#125,.F.);
#161=ORIENTED_EDGE('',*,*,#126,.F.);
#162=ORIENTED_EDGE('',*,*,#127,.T.);
#163=ORIENTED_EDGE('',*,*,#123,.F.);
#164=ORIENTED_EDGE('',*,*,#127,.F.);
#165=ORIENTED_EDGE('',*,*,#128,.F.);
#166=ORIENTED_EDGE('',*,*,#129,.F.);
#167=ORIENTED_EDGE('',*,*,#120,.F.);
#168=ORIENTED_EDGE('',*,*,#130,.T.);
#169=ORIENTED_EDGE('',*,*,#128,.T.);
#170=ORIENTED_EDGE('',*,*,#129,.T.);
#171=ORIENTED_EDGE('',*,*,#130,.F.);
#172=ORIENTED_EDGE('',*,*,#131,.F.);
#173=ORIENTED_EDGE('',*,*,#121,.T.);
#174=ORIENTED_EDGE('',*,*,#132,.F.);
#175=ORIENTED_EDGE('',*,*,#133,.T.);
#176=ORIENTED_EDGE('',*,*,#131,.T.);
#177=ORIENTED_EDGE('',*,*,#133,.F.);
#178=ORIENTED_EDGE('',*,*,#125,.T.);
#179=ORIENTED_EDGE('',*,*,#126,.T.);
#180=ORIENTED_EDGE('',*,*,#132,.T.);
#181=ORIENTED_EDGE('',*,*,#115,.F.);
#182=CONICAL_SURFACE('',#220,5.00000000000003,0.78539816339745);
#183=CONICAL_SURFACE('',#227,5.,0.785398163397448);
#184=CONICAL_SURFACE('',#235,1.275,1.02974425867665);
#185=ADVANCED_FACE('',(#36),#182,.T.);
#186=ADVANCED_FACE('',(#37),#31,.T.);
#187=ADVANCED_FACE('',(#38),#27,.T.);
#188=ADVANCED_FACE('',(#39),#183,.T.);
#189=ADVANCED_FACE('',(#40,#22),#28,.T.);
#190=ADVANCED_FACE('',(#41),#32,.T.);
#191=ADVANCED_FACE('',(#42),#184,.F.);
#192=ADVANCED_FACE('',(#43,#23),#33,.F.);
#193=ADVANCED_FACE('',(#44),#34,.F.);
#194=ADVANCED_FACE('',(#45,#24),#29,.T.);
#195=ADVANCED_FACE('',(#46,#25),#35,.T.);
#196=ADVANCED_FACE('',(#47,#26),#30,.T.);
#197=CLOSED_SHELL('',(#185,#186,#187,#188,#189,#190,#191,#192,#193,#194,
#195,#196));
#198=DERIVED_UNIT_ELEMENT(#201,1.);
#199=DERIVED_UNIT_ELEMENT(#402,-3.);
#200=DIMENSIONAL_EXPONENTS(0.,1.,0.,0.,0.,0.,0.);
#201=(
CONVERSION_BASED_UNIT('gram',#203)
MASS_UNIT()
NAMED_UNIT(#200)
);
#202=(
MASS_UNIT()
NAMED_UNIT(*)
SI_UNIT(.KILO.,.GRAM.)
);
#203=MASS_MEASURE_WITH_UNIT(MASS_MEASURE(0.001),#202);
#204=DERIVED_UNIT((#198,#199));
#205=MEASURE_REPRESENTATION_ITEM('density measure',
POSITIVE_RATIO_MEASURE(8.),#204);
#206=PROPERTY_DEFINITION_REPRESENTATION(#211,#208);
#207=PROPERTY_DEFINITION_REPRESENTATION(#212,#209);
#208=REPRESENTATION('material name',(#210),#399);
#209=REPRESENTATION('density',(#205),#399);
#210=DESCRIPTIVE_REPRESENTATION_ITEM('Stainless Steel',
'Stainless Steel');
#211=PROPERTY_DEFINITION('material property','material name',#409);
#212=PROPERTY_DEFINITION('material property','density of part',#409);
#213=DATE_TIME_ROLE('creation_date');
#214=APPLIED_DATE_AND_TIME_ASSIGNMENT(#215,#213,(#409));
#215=DATE_AND_TIME(#216,#217);
#216=CALENDAR_DATE(2025,9,3);
#217=LOCAL_TIME(0,0,0.,#218);
#218=COORDINATED_UNIVERSAL_TIME_OFFSET(0,0,.BEHIND.);
#219=AXIS2_PLACEMENT_3D('',#308,#246,#247);
#220=AXIS2_PLACEMENT_3D('',#309,#248,#249);
#221=AXIS2_PLACEMENT_3D('',#311,#250,#251);
#222=AXIS2_PLACEMENT_3D('',#315,#253,#254);
#223=AXIS2_PLACEMENT_3D('',#316,#255,#256);
#224=AXIS2_PLACEMENT_3D('',#317,#257,#258);
#225=AXIS2_PLACEMENT_3D('',#320,#260,#261);
#226=AXIS2_PLACEMENT_3D('',#321,#262,#263);
#227=AXIS2_PLACEMENT_3D('',#322,#264,#265);
#228=AXIS2_PLACEMENT_3D('',#325,#266,#267);
#229=AXIS2_PLACEMENT_3D('',#326,#268,#269);
#230=AXIS2_PLACEMENT_3D('',#329,#271,#272);
#231=AXIS2_PLACEMENT_3D('',#330,#273,#274);
#232=AXIS2_PLACEMENT_3D('',#332,#275,#276);
#233=AXIS2_PLACEMENT_3D('',#333,#277,#278);
#234=AXIS2_PLACEMENT_3D('',#335,#279,#280);
#235=AXIS2_PLACEMENT_3D('',#337,#282,#283);
#236=AXIS2_PLACEMENT_3D('',#339,#284,#285);
#237=AXIS2_PLACEMENT_3D('',#342,#287,#288);
#238=AXIS2_PLACEMENT_3D('',#385,#290,#291);
#239=AXIS2_PLACEMENT_3D('',#386,#292,#293);
#240=AXIS2_PLACEMENT_3D('',#387,#294,#295);
#241=AXIS2_PLACEMENT_3D('',#389,#297,#298);
#242=AXIS2_PLACEMENT_3D('',#391,#299,#300);
#243=AXIS2_PLACEMENT_3D('',#392,#301,#302);
#244=AXIS2_PLACEMENT_3D('',#394,#303,#304);
#245=AXIS2_PLACEMENT_3D('',#396,#306,#307);
#246=DIRECTION('axis',(0.,0.,1.));
#247=DIRECTION('refdir',(1.,0.,0.));
#248=DIRECTION('center_axis',(-1.,0.,0.));
#249=DIRECTION('ref_axis',(0.,-1.,0.));
#250=DIRECTION('center_axis',(-1.,0.,0.));
#251=DIRECTION('ref_axis',(0.,-1.,0.));
#252=DIRECTION('',(-0.707106781186546,0.707106781186549,8.65956056235495E-17));
#253=DIRECTION('center_axis',(1.,0.,0.));
#254=DIRECTION('ref_axis',(0.,-1.,0.));
#255=DIRECTION('center_axis',(1.,0.,0.));
#256=DIRECTION('ref_axis',(0.,-1.,0.));
#257=DIRECTION('center_axis',(1.,0.,0.));
#258=DIRECTION('ref_axis',(0.,1.,0.));
#259=DIRECTION('',(-1.,0.,0.));
#260=DIRECTION('center_axis',(1.,0.,0.));
#261=DIRECTION('ref_axis',(0.,0.,-1.));
#262=DIRECTION('center_axis',(1.,0.,0.));
#263=DIRECTION('ref_axis',(0.,0.,-1.));
#264=DIRECTION('center_axis',(1.,0.,0.));
#265=DIRECTION('ref_axis',(0.,-1.,0.));
#266=DIRECTION('center_axis',(-1.,0.,0.));
#267=DIRECTION('ref_axis',(0.,-1.,0.));
#268=DIRECTION('center_axis',(-1.,0.,0.));
#269=DIRECTION('ref_axis',(0.,-1.,0.));
#270=DIRECTION('',(-0.707106781186548,-0.707106781186547,-8.65956056235493E-17));
#271=DIRECTION('center_axis',(1.,0.,0.));
#272=DIRECTION('ref_axis',(0.,-1.,0.));
#273=DIRECTION('center_axis',(-1.,0.,0.));
#274=DIRECTION('ref_axis',(0.,0.,1.));
#275=DIRECTION('center_axis',(1.,0.,0.));
#276=DIRECTION('ref_axis',(0.,0.,1.));
#277=DIRECTION('center_axis',(1.,0.,0.));
#278=DIRECTION('ref_axis',(0.,1.,0.));
#279=DIRECTION('center_axis',(1.,0.,0.));
#280=DIRECTION('ref_axis',(0.,0.,-1.));
#281=DIRECTION('',(-1.,0.,0.));
#282=DIRECTION('center_axis',(0.,1.,0.));
#283=DIRECTION('ref_axis',(-1.,0.,0.));
#284=DIRECTION('center_axis',(0.,1.,0.));
#285=DIRECTION('ref_axis',(-1.,0.,0.));
#286=DIRECTION('',(-0.857167300702112,-0.515038074910054,1.04972719113862E-16));
#287=DIRECTION('center_axis',(0.,1.,0.));
#288=DIRECTION('ref_axis',(-1.,0.,0.));
#289=DIRECTION('',(0.,-1.,0.));
#290=DIRECTION('center_axis',(0.707106781186548,0.707106781186547,0.));
#291=DIRECTION('ref_axis',(-0.707106781186547,0.707106781186548,0.));
#292=DIRECTION('center_axis',(0.707106781186548,-0.707106781186547,0.));
#293=DIRECTION('ref_axis',(-0.707106781186547,-0.707106781186548,0.));
#294=DIRECTION('center_axis',(-1.,0.,0.));
#295=DIRECTION('ref_axis',(0.,0.,1.));
#296=DIRECTION('',(1.,0.,0.));
#297=DIRECTION('center_axis',(-1.,0.,0.));
#298=DIRECTION('ref_axis',(0.,0.,1.));
#299=DIRECTION('center_axis',(1.,0.,0.));
#300=DIRECTION('ref_axis',(0.,0.,-1.));
#301=DIRECTION('center_axis',(1.,0.,0.));
#302=DIRECTION('ref_axis',(0.,1.,0.));
#303=DIRECTION('center_axis',(1.,0.,0.));
#304=DIRECTION('ref_axis',(0.,0.,-1.));
#305=DIRECTION('',(-1.,0.,0.));
#306=DIRECTION('center_axis',(1.,0.,0.));
#307=DIRECTION('ref_axis',(0.,0.,-1.));
#308=CARTESIAN_POINT('',(0.,0.,0.));
#309=CARTESIAN_POINT('Origin',(49.,0.,0.));
#310=CARTESIAN_POINT('',(50.,4.00000000000002,-4.89858719658944E-16));
#311=CARTESIAN_POINT('Origin',(50.,0.,0.));
#312=CARTESIAN_POINT('',(48.,6.00000000000003,7.34788079488416E-16));
#313=CARTESIAN_POINT('',(49.,5.00000000000003,6.1232339957368E-16));
#314=CARTESIAN_POINT('',(48.,-6.00000000000003,-7.34788079488416E-16));
#315=CARTESIAN_POINT('Origin',(48.,0.,0.));
#316=CARTESIAN_POINT('Origin',(48.,0.,0.));
#317=CARTESIAN_POINT('Origin',(41.5,0.,0.));
#318=CARTESIAN_POINT('',(33.,-6.00000000000003,-7.34788079488416E-16));
#319=CARTESIAN_POINT('',(41.5,-6.00000000000003,-7.34788079488416E-16));
#320=CARTESIAN_POINT('Origin',(33.,0.,0.));
#321=CARTESIAN_POINT('Origin',(50.,0.,0.));
#322=CARTESIAN_POINT('Origin',(-49.,0.,0.));
#323=CARTESIAN_POINT('',(-48.,6.,-7.34788079488412E-16));
#324=CARTESIAN_POINT('',(-48.,-6.,-7.34788079488412E-16));
#325=CARTESIAN_POINT('Origin',(-48.,0.,0.));
#326=CARTESIAN_POINT('Origin',(-48.,0.,0.));
#327=CARTESIAN_POINT('',(-50.,4.,4.89858719658941E-16));
#328=CARTESIAN_POINT('',(-49.,5.,6.12323399573677E-16));
#329=CARTESIAN_POINT('Origin',(-50.,0.,0.));
#330=CARTESIAN_POINT('Origin',(-50.,6.,0.));
#331=CARTESIAN_POINT('',(-50.,-3.12284933782575E-16,-2.55));
#332=CARTESIAN_POINT('Origin',(-50.,0.,0.));
#333=CARTESIAN_POINT('Origin',(-41.5,0.,0.));
#334=CARTESIAN_POINT('',(-33.,-6.,-7.34788079488412E-16));
#335=CARTESIAN_POINT('Origin',(-33.,0.,0.));
#336=CARTESIAN_POINT('',(-41.5,-6.,-7.34788079488412E-16));
#337=CARTESIAN_POINT('Origin',(0.,-4.76609728926014,0.));
#338=CARTESIAN_POINT('',(2.55,-4.00000000000001,-3.12284933782575E-16));
#339=CARTESIAN_POINT('Origin',(0.,-4.00000000000001,0.));
#340=CARTESIAN_POINT('',(0.,-5.53219457852028,0.));
#341=CARTESIAN_POINT('',(1.275,-4.76609728926014,-1.56142466891288E-16));
#342=CARTESIAN_POINT('Origin',(0.,2.99999999999999,0.));
#343=CARTESIAN_POINT('',(-2.55,10.,0.));
#344=CARTESIAN_POINT('',(2.55,10.,0.));
#345=CARTESIAN_POINT('Ctrl Pts',(-2.55,10.,-8.32667268468867E-16));
#346=CARTESIAN_POINT('Ctrl Pts',(-2.55,10.,-0.32169565325652));
#347=CARTESIAN_POINT('Ctrl Pts',(-2.48541920358172,9.98292396368066,-0.663877862849471));
#348=CARTESIAN_POINT('Ctrl Pts',(-2.22473486965977,9.92123518443894,-1.29174188708316));
#349=CARTESIAN_POINT('Ctrl Pts',(-2.02870815675248,9.8774479462817,-1.57753642729891));
#350=CARTESIAN_POINT('Ctrl Pts',(-1.57750219679532,9.79473426904212,-2.02874238725608));
#351=CARTESIAN_POINT('Ctrl Pts',(-1.29172188155172,9.75030793758656,-2.2247424266558));
#352=CARTESIAN_POINT('Ctrl Pts',(-0.663908410802966,9.68714276564039,-2.48540726943939));
#353=CARTESIAN_POINT('Ctrl Pts',(-0.321744467503937,9.66941053012023,-2.55));
#354=CARTESIAN_POINT('Ctrl Pts',(0.321744467503937,9.66941053012023,-2.55));
#355=CARTESIAN_POINT('Ctrl Pts',(0.663908410802966,9.68714276564039,-2.48540726943939));
#356=CARTESIAN_POINT('Ctrl Pts',(1.29172188155172,9.75030793758656,-2.2247424266558));
#357=CARTESIAN_POINT('Ctrl Pts',(1.57750219679532,9.79473426904212,-2.02874238725608));
#358=CARTESIAN_POINT('Ctrl Pts',(2.02870815675248,9.8774479462817,-1.57753642729891));
#359=CARTESIAN_POINT('Ctrl Pts',(2.22473486965977,9.92123518443894,-1.29174188708316));
#360=CARTESIAN_POINT('Ctrl Pts',(2.48541920358172,9.98292396368066,-0.663877862849471));
#361=CARTESIAN_POINT('Ctrl Pts',(2.55,10.,-0.321695653256519));
#362=CARTESIAN_POINT('Ctrl Pts',(2.55,10.,3.46944695195361E-16));
#363=CARTESIAN_POINT('Ctrl Pts',(2.55,10.,3.46944695195361E-16));
#364=CARTESIAN_POINT('Ctrl Pts',(2.55,10.,0.321695653256519));
#365=CARTESIAN_POINT('Ctrl Pts',(2.48541920358172,9.98292396368066,0.663877862849471));
#366=CARTESIAN_POINT('Ctrl Pts',(2.22473486965977,9.92123518443894,1.29174188708316));
#367=CARTESIAN_POINT('Ctrl Pts',(2.02870815675248,9.8774479462817,1.57753642729891));
#368=CARTESIAN_POINT('Ctrl Pts',(1.57750219679532,9.79473426904212,2.02874238725608));
#369=CARTESIAN_POINT('Ctrl Pts',(1.29172188155172,9.75030793758656,2.2247424266558));
#370=CARTESIAN_POINT('Ctrl Pts',(0.663908410802967,9.68714276564039,2.48540726943939));
#371=CARTESIAN_POINT('Ctrl Pts',(0.321744467503938,9.66941053012023,2.55));
#372=CARTESIAN_POINT('Ctrl Pts',(0.,9.66941053012023,2.55));
#373=CARTESIAN_POINT('Ctrl Pts',(-0.321744467503937,9.66941053012023,2.55));
#374=CARTESIAN_POINT('Ctrl Pts',(-0.663908410802966,9.68714276564039,2.48540726943939));
#375=CARTESIAN_POINT('Ctrl Pts',(-1.29172188155172,9.75030793758656,2.2247424266558));
#376=CARTESIAN_POINT('Ctrl Pts',(-1.57750219679532,9.79473426904212,2.02874238725608));
#377=CARTESIAN_POINT('Ctrl Pts',(-2.02870815675248,9.8774479462817,1.57753642729891));
#378=CARTESIAN_POINT('Ctrl Pts',(-2.22473486965977,9.92123518443893,1.29174188708316));
#379=CARTESIAN_POINT('Ctrl Pts',(-2.48541920358172,9.98292396368066,0.663877862849469));
#380=CARTESIAN_POINT('Ctrl Pts',(-2.55,10.,0.321695653256518));
#381=CARTESIAN_POINT('Ctrl Pts',(-2.55,10.,-6.93889390390723E-16));
#382=CARTESIAN_POINT('',(2.55,2.99999999999999,-3.12284933782575E-16));
#383=CARTESIAN_POINT('',(0.,0.,-2.55));
#384=CARTESIAN_POINT('',(0.,0.,2.55));
#385=CARTESIAN_POINT('Origin',(0.,0.,0.));
#386=CARTESIAN_POINT('Origin',(0.,0.,0.));
#387=CARTESIAN_POINT('Origin',(-25.,0.,0.));
#388=CARTESIAN_POINT('',(-25.,-3.12284933782575E-16,-2.55));
#389=CARTESIAN_POINT('Origin',(-33.,9.99999999999999,0.));
#390=CARTESIAN_POINT('',(-33.,-10.,-1.22464679914735E-15));
#391=CARTESIAN_POINT('Origin',(-33.,0.,0.));
#392=CARTESIAN_POINT('Origin',(0.,0.,0.));
#393=CARTESIAN_POINT('',(33.,-10.,-1.22464679914735E-15));
#394=CARTESIAN_POINT('Origin',(33.,0.,0.));
#395=CARTESIAN_POINT('',(0.,-10.,-1.22464679914735E-15));
#396=CARTESIAN_POINT('Origin',(33.,6.00000000000004,0.));
#397=UNCERTAINTY_MEASURE_WITH_UNIT(LENGTH_MEASURE(0.01),#401,
'DISTANCE_ACCURACY_VALUE',
'Maximum model space distance between geometric entities at asserted c
onnectivities');
#398=UNCERTAINTY_MEASURE_WITH_UNIT(LENGTH_MEASURE(0.01),#401,
'DISTANCE_ACCURACY_VALUE',
'Maximum model space distance between geometric entities at asserted c
onnectivities');
#399=(
GEOMETRIC_REPRESENTATION_CONTEXT(3)
GLOBAL_UNCERTAINTY_ASSIGNED_CONTEXT((#397))
GLOBAL_UNIT_ASSIGNED_CONTEXT((#401,#403,#404))
REPRESENTATION_CONTEXT('','3D')
);
#400=(
GEOMETRIC_REPRESENTATION_CONTEXT(3)
GLOBAL_UNCERTAINTY_ASSIGNED_CONTEXT((#398))
GLOBAL_UNIT_ASSIGNED_CONTEXT((#401,#403,#404))
REPRESENTATION_CONTEXT('','3D')
);
#401=(
LENGTH_UNIT()
NAMED_UNIT(*)
SI_UNIT(.MILLI.,.METRE.)
);
#402=(
LENGTH_UNIT()
NAMED_UNIT(*)
SI_UNIT(.CENTI.,.METRE.)
);
#403=(
NAMED_UNIT(*)
PLANE_ANGLE_UNIT()
SI_UNIT($,.RADIAN.)
);
#404=(
NAMED_UNIT(*)
SI_UNIT($,.STERADIAN.)
SOLID_ANGLE_UNIT()
);
#405=SHAPE_DEFINITION_REPRESENTATION(#406,#407);
#406=PRODUCT_DEFINITION_SHAPE('',$,#409);
#407=SHAPE_REPRESENTATION('',(#219),#399);
#408=PRODUCT_DEFINITION_CONTEXT('part definition',#413,'design');
#409=PRODUCT_DEFINITION('05-spindel','05-spindel',#410,#408);
#410=PRODUCT_DEFINITION_FORMATION('',$,#415);
#411=PRODUCT_RELATED_PRODUCT_CATEGORY('05-spindel','05-spindel',(#415));
#412=APPLICATION_PROTOCOL_DEFINITION('international standard',
'automotive_design',2009,#413);
#413=APPLICATION_CONTEXT(
'Core Data for Automotive Mechanical Design Process');
#414=PRODUCT_CONTEXT('part definition',#413,'mechanical');
#415=PRODUCT('05-spindel','05-spindel',$,(#414));
#416=PRESENTATION_STYLE_ASSIGNMENT((#418));
#417=PRESENTATION_STYLE_ASSIGNMENT((#419));
#418=SURFACE_STYLE_USAGE(.BOTH.,#424);
#419=SURFACE_STYLE_USAGE(.BOTH.,#425);
#420=SURFACE_STYLE_RENDERING_WITH_PROPERTIES($,#432,(#422));
#421=SURFACE_STYLE_RENDERING_WITH_PROPERTIES($,#433,(#423));
#422=SURFACE_STYLE_TRANSPARENT(0.);
#423=SURFACE_STYLE_TRANSPARENT(0.);
#424=SURFACE_SIDE_STYLE('',(#426,#420));
#425=SURFACE_SIDE_STYLE('',(#427,#421));
#426=SURFACE_STYLE_FILL_AREA(#428);
#427=SURFACE_STYLE_FILL_AREA(#429);
#428=FILL_AREA_STYLE('',(#430));
#429=FILL_AREA_STYLE('',(#431));
#430=FILL_AREA_STYLE_COLOUR('',#432);
#431=FILL_AREA_STYLE_COLOUR('',#433);
#432=COLOUR_RGB('',0.745098039215686,0.737254901960784,0.729411764705882);
#433=COLOUR_RGB('',0.745098039215686,0.737254901960784,0.729411764705882);
ENDSEC;
END-ISO-10303-21;
